/* XPM */
static char * cesped_xpm[] = {
"64 64 5 1",
" 	c #9BB94E",
".	c #BFBA5B",
"+	c #79A863",
"@	c #679175",
"#	c #161C2E",
"                 ....                 +++++++++++++++++++++++++ ",
"                ......            +++++++   +++++++++++++++...+ ",
"            .............    +++++++++++     +++++++      ..... ",
"              ....   .....                   ++++     ..  ......",
"                .     .....                         ............",
"....                                               ........+++..",
".........+++                                      +++++++++++++.",
"+++++++++++++++++                                +++++  ++++++++",
"++++++++++++++++++++++++++                    ++++++     +++++++",
"++++++++++++++++++++++                                      ++++",
"    ++++++++++++                                             +++",
"     +   ++                         @@@@@    @@@@@      ...  ++ ",
"                                  @@@@@@@@  @@@@@@@    ..... ++ ",
"             .....               @@@...@@@@@@@....@@  ........++",
"        ..........     @@@@@  @@@@@......@@@@.......@ ......... ",
"     ............     @@@@@@@@@@@@@........@................... ",
".    ..........   @@ @@@..@@@@@..@@@............................",
".                @@@@@@....@@@.....@............................",
"....             @@..@@.........................    .....++.....",
".....        ..@@@.....................++++....      ...++++....",
"..         ............   .....    ...++++++  .       ++++++....",
"         .............     ...   +++++++++++       +++++++++    ",
"        ...   ......       ...  +++++++++++       +++++++++++   ",
"      ....     ...           .  +++++++++++++++  ++++++  +++++  ",
"                              ++++++++++++++++++++++++     +++++",
"                        ++++++++++   +++++++++++++++++          ",
"        +++                ++++++     ++   +++++++  ++          ",
"       +++++                  +++     +      ++++    ++         ",
"+++   ++++++            ..                                      ",
"++++++++++++           ....    ....                            +",
"+++++++++++++++      ................        ++++             ++",
"++++++++++++++++++++..............++++  +++++++++++  ++++    +++",
"++++++++++++++++++     ..........+++++++++++++++++++++++++++++++",
"+++++++++++++++         ...... +++   +++++++++++++++++++++@@@@++",
"       @@@@+++      .........            ++++++++++++++++@@@@@@+",
"@@@@  @@@@@@@+    ...........       +++++++++++++++++@@@+@@@@@@+",
"@@@@@@@...@@@@   ...........          ++++++++++++++@@@@@@@@@@@#",
"....@@.....@@@@...     .....            +++++++++++@@@@@....@@@.",
"................        ..... ..            +++++++@@@.......@@.",
"................          .......           +++++@@@@........@..",
"................ ...       ...   .           ......@............",
".....................                       ..  ................",
".  ....  ............   ..                  .    ........   ....",
"     .    ...........  .....                         ...     .. ",
"          ...........................                 ..     .  ",
"          .....   .........                                  .  ",
"                              ++++++                            ",
"                            +++++++++ ++++      ...             ",
"+                         +++++++++++++++++   ......          ++",
"++                       ++++++++++++++++++.............+++  +++",
"+++      +++           ++++++     ++++++++++++.........+++++++  ",
" +++    +++++   ++   +++++++       +++   +++++++...+++++  +++   ",
"       ++++++++++++                ++                           ",
"+++    +++++++++++++++                                  ++     +",
"++++  ++++   +++++                       @@@@@@   @@@ +++++ ++++",
"+++++++++                 @@@@@  @@@   ....@@@@@ @@@@@++++++++++",
"+++++++++                @@@@@@@@@@@@ .......@@@@@@..@@+++++++++",
"+   ++++               @@@....@@@..@@.........@@@@....@@..+++  +",
"     ++++++++++     @@@@.......................@@..........++   ",
"     +++++++++++++.@@....................+++....@..  ........   ",
"     +++++..................+++.........+++++.....    ......... ",
"    ++............      ..+++++++..+++++++++++++           ...  ",
"                              +++++++++++++++++++++             ",
"                                  ++++++++++++++++++++   ++++++ "};
