/* XPM */
static char * fuegoarriba_xpm[] = {
"68 64 178 2",
"  	c None",
". 	c #161C2E",
"+ 	c #0E1A2E",
"@ 	c #D08C41",
"# 	c #D18F40",
"$ 	c #D4953F",
"% 	c #D6983F",
"& 	c #D39240",
"* 	c #D08B41",
"= 	c #DDA83B",
"- 	c #F2CD30",
"; 	c #FCDE28",
"> 	c #FFE524",
", 	c #F1CC30",
"' 	c #D4963F",
") 	c #D18D41",
"! 	c #EABF35",
"~ 	c #FDE027",
"{ 	c #FFE325",
"] 	c #ECC433",
"^ 	c #E5B737",
"/ 	c #FFE424",
"( 	c #CF8941",
"_ 	c #E6B737",
": 	c #F8D82B",
"< 	c #F9DA2A",
"[ 	c #FEE225",
"} 	c #DBA43C",
"| 	c #CD8742",
"1 	c #D29240",
"2 	c #EAC035",
"3 	c #FBDC29",
"4 	c #DFAB3B",
"5 	c #D79C3E",
"6 	c #CC8843",
"7 	c #B36F4C",
"8 	c #C48046",
"9 	c #E1AE3A",
"0 	c #D29140",
"a 	c #C88445",
"b 	c #C98544",
"c 	c #CD8942",
"d 	c #C27D47",
"e 	c #CF8B41",
"f 	c #C68245",
"g 	c #B6724C",
"h 	c #B46F4C",
"i 	c #C78445",
"j 	c #B26D4D",
"k 	c #D18C41",
"l 	c #CA8644",
"m 	c #BB774A",
"n 	c #CE8A42",
"o 	c #DEAA3B",
"p 	c #CF8A41",
"q 	c #F7D72B",
"r 	c #F5D32D",
"s 	c #E8BD35",
"t 	c #E9BE35",
"u 	c #D99F3D",
"v 	c #FBDD28",
"w 	c #D9A03D",
"x 	c #D89D3E",
"y 	c #E8BD36",
"z 	c #E1B039",
"A 	c #FADB29",
"B 	c #FFE327",
"C 	c #FFE328",
"D 	c #E0AE3A",
"E 	c #CD8943",
"F 	c #E3B339",
"G 	c #FBDD29",
"H 	c #FFE425",
"I 	c #FFE76F",
"J 	c #FFE874",
"K 	c #E5B837",
"L 	c #D29040",
"M 	c #BC7849",
"N 	c #CE8E43",
"O 	c #F6D42C",
"P 	c #FEE226",
"Q 	c #FFE31A",
"R 	c #FFF3C5",
"S 	c #FFEB95",
"T 	c #EEC732",
"U 	c #D08C42",
"V 	c #CB8743",
"W 	c #F5D42D",
"X 	c #FFE324",
"Y 	c #FFE65F",
"Z 	c #FFFEFC",
"` 	c #FFF3C6",
" .	c #FFE326",
"..	c #FFE872",
"+.	c #FFE314",
"@.	c #F7D62C",
"#.	c #D79B3E",
"$.	c #B16C4D",
"%.	c #BB7749",
"&.	c #B7734B",
"*.	c #CF8B42",
"=.	c #FFE437",
"-.	c #FFF6D4",
";.	c #FFFFFF",
">.	c #FFF7D9",
",.	c #FFFAE7",
"'.	c #FFEA84",
").	c #FFE323",
"!.	c #FADA2A",
"~.	c #BD7949",
"{.	c #B4704C",
"].	c #B5704C",
"^.	c #C58146",
"/.	c #F9D82B",
"(.	c #FFE873",
"_.	c #FFF4CA",
":.	c #FFFDF6",
"<.	c #FFFDF5",
"[.	c #FFF4CB",
"}.	c #FEE126",
"|.	c #DBA33D",
"1.	c #C47F46",
"2.	c #CA8544",
"3.	c #E6B837",
"4.	c #EBC234",
"5.	c #E4B538",
"6.	c #FFE554",
"7.	c #FFFAE8",
"8.	c #FFFEFB",
"9.	c #FFF8E1",
"0.	c #FFE768",
"a.	c #FFE225",
"b.	c #E7BA36",
"c.	c #BB764A",
"d.	c #C78145",
"e.	c #E9BF35",
"f.	c #FFE321",
"g.	c #FFEC98",
"h.	c #FFF2BF",
"i.	c #FFE322",
"j.	c #C27E47",
"k.	c #B6714C",
"l.	c #B6724B",
"m.	c #C17D47",
"n.	c #D18E41",
"o.	c #FDE026",
"p.	c #FFE318",
"q.	c #FFF3C4",
"r.	c #FFE31F",
"s.	c #BD7849",
"t.	c #CC8943",
"u.	c #E8BB36",
"v.	c #FFE43B",
"w.	c #FDE126",
"x.	c #D4943F",
"y.	c #FFE332",
"z.	c #FFF4CD",
"A.	c #FFFEFA",
"B.	c #FFFFFE",
"C.	c #DFAB3A",
"D.	c #FFEA8C",
"E.	c #FFEFAE",
"F.	c #FFFBEC",
"G.	c #FFE320",
"H.	c #DAA13D",
"I.	c #E6B937",
"J.	c #FADA2D",
"K.	c #FADB31",
"L.	c #F9EAC0",
"M.	c #FBF8F5",
"N.	c #FFFCF2",
"O.	c #FDE575",
"P.	c #F9DA29",
"Q.	c #EAC034",
"R.	c #DFAC3A",
"S.	c #D5983F",
"T.	c #D6993F",
"U.	c #D9A357",
"                                                                                                                                        ",
"                                                                                                                                        ",
"                                                                                                                                        ",
"                                                                                                                                        ",
"                                                                                                                                        ",
"                                                                                                                                        ",
"                                                                                                                                        ",
"                                                                                                                                        ",
"                                                                                                                                        ",
"                                                                                                                                        ",
"                                                                                                                                        ",
"                                                                                                                                        ",
"                                                          . . . . . .                                                                   ",
"                                                        . . . . . . . .                                                                 ",
"                                                      .       .                                                                         ",
"                                                              . .                                                                       ",
"                                                        .       .                                                                       ",
"                                                      . +                                                                               ",
"                                                          @ # $ % % &                                                                   ",
"                                                      @ * = - ; > > , ' @                                                               ",
"                                                  @ @ ) ! ~ { { { { { ] * @                                                             ",
"                                                  @ @ ^ / { { { { { { ~ ( @ @                                                           ",
"                                                @ @ @ & _ : < [ { ~ : } @ @ @                                                           ",
"                                                @ @     ( | 1 2 3 4 5 * @ @ @                                                           ",
"                                                    @ @ 6 7 8 @ 9 0 @     @ @                                                           ",
"                                                        @ a b @ c d @   @                                                               ",
"                                                              e f g                                                                     ",
"                                                              b h g             @                                                       ",
"                                                              i j g                                                                     ",
"                                                              k 7 g @                                                                   ",
"                                                              @ l m @                                                                   ",
"                                                              @ @ n @                                                                   ",
"                                                              @ 4 o @                                                                   ",
"                                                            @ p q r @                                                                   ",
"                                                          @ * s { { t #   @ @                                                           ",
"                                                    @   @ @ u v { { ; w @ @ @ @                                                         ",
"                                                @ @ @ @ * x v { { { { ; y & @ @ @                                                       ",
"                                                  @ @ 0 z A { { B C { { { D @ @ @                                                       ",
"                                            @ l E x F G H { { { I J { { { { K L @ @ @ @ @                                               ",
"                                        @ @ e M N O P { { { { Q R S { { { { { T ) @ @ @ U @                                             ",
"                                      @ @ V @ e W H { { { { X Y Z `  ...+.{ { { @.#.@ a $.8 @                                           ",
"                                    @ @ %.&.*.^ [ { { { { X =.-.;.Z >.,.'.).{ { { !.@ e ~.{.n                                           ",
"                                    @ c ].^.& /.T H { { ).(._.;.;.;.:.<.[.X { { { }.|.@ 1.h c @                                         ",
"                                    @ 6 ].2.3.4.5./ { { 6.7.;.;.;.;.;.8.9.0.{ { { a.b.f c.].c @                                         ",
"                                    @ 6 {.d.e.} : { { f.g.;.;.;.;.;.;.;.h.i.{ { { a.b.V j.k.c @                                         ",
"                                    @ c l.m.n.5 o.{ { p.q.;.;.;.;.;.;.;.>.r.{ { { a.3.@ @ s.n @                                         ",
"                                    @ @ t.n @ u.{ {  .v.Z ;.;.;.;.;.;.;.>.r.{ { { w.x.@ @ ) @                                           ",
"                                    @ @ @ @ @ b.{ { y.z.A.B.;.;.;.;.;.;.>.r.{ { { , * @ @ @ @                                           ",
"                                      @ @ @ @ C.[ { X D.E.F.;.;.;.;.;.;.h.G.{ { < H.@ @ @ @                                             ",
"                                        @ @ @ * I.< { J.K.L.M.;.;.;.;.N.O.P.!.!.Q.) @ @ @ @                                             ",
"                                              @ e u R.S.T.U.                5 T.0 @ @ @                                                 ",
"                                                                                                                                        ",
"                                                                                                                                        ",
"                                                                                                                                        ",
"                                                                                                                                        ",
"                                                                                                                                        ",
"                                                                                                                                        ",
"                                                                                                                                        ",
"                                                                                                                                        ",
"                                                                                                                                        ",
"                                                                                                                                        ",
"                                                                                                                                        ",
"                                                                                                                                        ",
"                                                                                                                                        "};
