/* XPM */
static char * fuegoabajo_xpm[] = {
"64 64 242 2",
"  	c None",
". 	c #161C2E",
"+ 	c #B16C4D",
"@ 	c #B36E4C",
"# 	c #B7734B",
"$ 	c #BA754A",
"% 	c #B8734B",
"& 	c #B36F4C",
"* 	c #B26D4D",
"= 	c #B6724C",
"- 	c #BF7A48",
"; 	c #CA8644",
"> 	c #CE8A42",
", 	c #BE7A48",
"' 	c #B5714B",
") 	c #C68246",
"! 	c #D08C41",
"~ 	c #CF8B41",
"{ 	c #CC8843",
"] 	c #B4704C",
"^ 	c #BC7849",
"/ 	c #CA8643",
"( 	c #CF8B42",
"_ 	c #B46F4C",
": 	c #B7724B",
"< 	c #BF7B48",
"[ 	c #C17C48",
"} 	c #C07C48",
"| 	c #BB764A",
"1 	c #B36E4D",
"2 	c #D18F41",
"3 	c #D6993F",
"4 	c #D18E41",
"5 	c #D4943F",
"6 	c #E9BF35",
"7 	c #D4953F",
"8 	c #D18F40",
"9 	c #DDA63B",
"0 	c #F7D62C",
"a 	c #D6993E",
"b 	c #D29140",
"c 	c #E8BB36",
"d 	c #F9D92A",
"e 	c #DCA53C",
"f 	c #D5973F",
"g 	c #F1CC30",
"h 	c #FCDE28",
"i 	c #E7BB36",
"j 	c #D29040",
"k 	c #E1B039",
"l 	c #FBDE28",
"m 	c #FEE126",
"n 	c #D89F3E",
"o 	c #D08D41",
"p 	c #D08B41",
"q 	c #D89D3E",
"r 	c #F6D52C",
"s 	c #FEE226",
"t 	c #FFE325",
"u 	c #FDE027",
"v 	c #EDC433",
"w 	c #D49540",
"x 	c #D39240",
"y 	c #D4973F",
"z 	c #D79A3E",
"A 	c #EBC134",
"B 	c #FCDF27",
"C 	c #FBDC29",
"D 	c #DEAA3B",
"E 	c #D5983E",
"F 	c #E1AE3A",
"G 	c #E0AD3A",
"H 	c #D5993F",
"I 	c #C88445",
"J 	c #BF7B49",
"K 	c #CB8743",
"L 	c #E4B638",
"M 	c #F3D02F",
"N 	c #F4D12E",
"O 	c #EDC532",
"P 	c #E2B039",
"Q 	c #E1AF39",
"R 	c #E2B238",
"S 	c #F2CE2F",
"T 	c #FCDE27",
"U 	c #F6D52D",
"V 	c #E3B338",
"W 	c #E0AE3A",
"X 	c #DCA63C",
"Y 	c #D5983F",
"Z 	c #D39140",
"` 	c #C98544",
" .	c #CC8B43",
"..	c #E2B338",
"+.	c #F6D62C",
"@.	c #DDA83B",
"#.	c #E3B238",
"$.	c #F5D22D",
"%.	c #F9D92B",
"&.	c #DDA83C",
"*.	c #CA8844",
"=.	c #B9754B",
"-.	c #B5704C",
";.	c #BB784A",
">.	c #D9A33D",
",.	c #FEE225",
"'.	c #FFE328",
").	c #FFE32C",
"!.	c #FFE32E",
"~.	c #FFE327",
"{.	c #FFE326",
"].	c #FFE32A",
"^.	c #F4D02E",
"/.	c #F9DA2A",
"(.	c #E6B837",
"_.	c #C48246",
":.	c #DFAB3B",
"<.	c #FFE662",
"[.	c #FFEB8F",
"}.	c #FFF2BE",
"|.	c #FFE557",
"1.	c #FFE43D",
"2.	c #FFE97B",
"3.	c #FFE43A",
"4.	c #F1CD30",
"5.	c #D19041",
"6.	c #BB774A",
"7.	c #C07C47",
"8.	c #C98644",
"9.	c #DFAC3A",
"0.	c #FCE027",
"a.	c #FFE436",
"b.	c #FFEA8D",
"c.	c #FFF6D3",
"d.	c #FFF9E2",
"e.	c #FFF3C4",
"f.	c #FFE87A",
"g.	c #FFEFAC",
"h.	c #FFF6D7",
"i.	c #FFE875",
"j.	c #FFE31C",
"k.	c #FFE315",
"l.	c #FFE322",
"m.	c #F5D32D",
"n.	c #D29240",
"o.	c #BC7749",
"p.	c #B8744B",
"q.	c #C98744",
"r.	c #DFAD3A",
"s.	c #FFE32B",
"t.	c #FFE65B",
"u.	c #FFEEA7",
"v.	c #FFF7D7",
"w.	c #FFFDF8",
"x.	c #FFF7DB",
"y.	c #FFFBED",
"z.	c #FFFDF9",
"A.	c #FFF0B6",
"B.	c #FFE44A",
"C.	c #FFEB92",
"D.	c #FFF0B1",
"E.	c #FFE660",
"F.	c #CF8E42",
"G.	c #C17D47",
"H.	c #C58146",
"I.	c #CD8A42",
"J.	c #FBDD28",
"K.	c #FFE445",
"L.	c #FFF1B8",
"M.	c #FFF9E4",
"N.	c #FFFEFA",
"O.	c #FFFEF9",
"P.	c #FFFEFC",
"Q.	c #FFFFFF",
"R.	c #FFFFFE",
"S.	c #FFFAE9",
"T.	c #FFF0B8",
"U.	c #FFF1BB",
"V.	c #FFF9E6",
"W.	c #FFE447",
"X.	c #FDE127",
"Y.	c #C58446",
"Z.	c #B5714C",
"`.	c #C88444",
" +	c #F7D72B",
".+	c #FFE225",
"++	c #FFE555",
"@+	c #FFFAE8",
"#+	c #FFFCF5",
"$+	c #FFF8DE",
"%+	c #FFFAEC",
"&+	c #FFF3C7",
"*+	c #FADB2A",
"=+	c #DBA43C",
"-+	c #C68346",
";+	c #CC8842",
">+	c #EEC732",
",+	c #FFE556",
"'+	c #FFFAEB",
")+	c #FFFCF4",
"!+	c #FFF1B9",
"~+	c #DFAB3A",
"{+	c #FFE554",
"]+	c #FFE448",
"^+	c #FFE558",
"/+	c #F3CF2F",
"(+	c #D5963F",
"_+	c #DAA33C",
":+	c #F5D42C",
"<+	c #FFE766",
"[+	c #FFF8DF",
"}+	c #E3B339",
"|+	c #DEAA3A",
"1+	c #F1CB30",
"2+	c #FDDF27",
"3+	c #FFE333",
"4+	c #FDE679",
"5+	c #FDF4D7",
"6+	c #FDFBF8",
"7+	c #FFFEFE",
"8+	c #FBEFD0",
"9+	c #FBDE4F",
"0+	c #EEC832",
"a+	c #D28F40",
"b+	c #D79C3E",
"c+	c #EFC831",
"d+	c #F0CC46",
"e+	c #EFD29A",
"f+	c #F0DFD3",
"g+	c #FCF9F7",
"h+	c #FDFCFB",
"i+	c #ECD6C8",
"j+	c #DCAB73",
"k+	c #DDA941",
"l+	c #EDC533",
"m+	c #DDA73B",
"n+	c #D89D3D",
"o+	c #E8BC36",
"p+	c #DDA73C",
"q+	c #D79B40",
"r+	c #D89F5C",
"s+	c #D69A3E",
"                                                                                                                                ",
"                                                                                                                                ",
"                                                                                                                                ",
"                                                                                                                                ",
"                                                          . .                                                                   ",
"                                                      . . . .     .                                                             ",
"                                                    . .           .                                                             ",
"                                                                                                                                ",
"                                                            +                                                                   ",
"                                                          + + + +                                                               ",
"                                                    + + @ # $ % & + +                                                           ",
"                                                  + * = - ; > ; , * + +                                                         ",
"                                                + + ' ) > ! ! ~ { ] + +                                                         ",
"                                              + + * ^ / ( ~ ~ ( / _ + + +                                                       ",
"                                            + + + + & : < [ [ } | * + + +                                                       ",
"                                            + + + +   + _ _ _ _ 1 +                                                             ",
"                                              +           + + + +                                                               ",
"                                                          + + + +   + + +                                                       ",
"                                                            + +                                                                 ",
"                                                          + + + +                                                               ",
"                                                + +       + + +                                                                 ",
"                                                + +         + +                                                                 ",
"                                                            + +                                                                 ",
"                                                              + +                                                               ",
"                                                                *                                                               ",
"                                                                                                                                ",
"                                                                                                                                ",
"                                                              !                                                                 ",
"                                                              !                                                                 ",
"                                                              ! !                                                               ",
"                                                            2 3 4                                                               ",
"                                                            5 6 7                                                               ",
"                                                          8 9 0 a                                                               ",
"                                                        ! b c d e 4                                                             ",
"                                                      ! ! f g h i j ! !                                                         ",
"                                    ! ! ! !       ! ! ! 2 k l m g n o ! !       ! ! ! ! ! !                                     ",
"                                ! ! ! ! p p p ! ! ! ! ! q r s t u v w ! ! ! ! o b b ! ! ! ! !                                   ",
"                              ( > ~ ! x y y 5 b j j b z A B t t t C D x j j 4 E F G H x ! ! ~ !                                 ",
"                            ~ I J K x L M N O P Q Q R S T t t t t s U V W X Y c 0 C N L Z > ` (                                 ",
"                            { | #  ...d m m u l l l l m t t t t t t s l +.@.E #.$.s m %.&.*.=.` ~                               ",
"                          ~ ` -.;.>.0 ,.t t t t t t t '.).!.~.{.].{.t t u ^.S /.u t t u (. .: I ~                               ",
"                          ~ I ] _.:.B t t t t t t t ).<.[.}.|.1.2.3.{.t t m m t t t t m 4.5.6.7.( !                             ",
"                          ~ I ] 8.9.0.t t t t t t a.b.c.d.e.f.g.h.i.!.j.k.l.t t t t t s m.n.^ o.> !                             ",
"                          ! K p.q.r.u t t t t t s.t.u.v.w.x.c.y.z.A.B.C.D.E.s.t t t t m g F.p.G.( !                             ",
"                          ! ~ H.I.@.J.t t t t t K.L.x.M.N.O.P.Q.R.S.T.U.V.}.W.t t t t X.i Y.Z.`.~ !                             ",
"                          ! ! ~ ! q  +.+t t t t ++@+Q.Q.Q.Q.Q.Q.Q.R.#+$+%+&+B.t t t t *+=+-+G.;+! !                             ",
"                          ! ! ! ! n.>+s t t t t ,+'+R.Q.Q.Q.Q.Q.Q.Q.Q.Q.)+!+K.t t t s N 7 ~ ~ ! !                               ",
"                            ! ! ! 2 ~+/.t t t t {+V.R.Q.Q.Q.Q.Q.Q.Q.Q.Q.R.@+,+t t t h i j ! ! ! !                               ",
"                            ! ! ! ! 5 A u t t t ]+e.N.Q.Q.Q.Q.Q.Q.Q.Q.Q.R.%+^+{.t s /+(+! ! ! ! !                               ",
"                              ! ! ! 4 _+:+u t t ].<+[+O.Q.Q.Q.Q.Q.Q.Q.Q.R.S.|.t t C }+j ! ! ! !                                 ",
"                              ! ! ! ! j |+1+2+t t 3+4+5+6+7+Q.Q.Q.Q.Q.Q.6+8+9+u h 0+f o ! ! ! !                                 ",
"                                ! ! ! ! a+b+c+B u C d+e+f+g+          h+i+j+k+l+l+m+8 ! ! ! !                                   ",
"                                  ! ! ! ! 4 n+A o+p+q+r+                    b z z j ! ! ! !                                     ",
"                                      ! ! ! 4 b+s+                                                                              ",
"                                                                                                                                ",
"                                                                                                                                ",
"                                                                                                                                ",
"                                                                                                                                ",
"                                                                                                                                ",
"                                                                                                                                ",
"                                                                                                                                ",
"                                                                                                                                ",
"                                                                                                                                ",
"                                                                                                                                "};
