/* XPM */
static char * oritoarriba_xpm[] = {
"64 64 198 2",
"  	c None",
". 	c #151B2E",
"+ 	c #747833",
"@ 	c #626632",
"# 	c #00002E",
"$ 	c #00002D",
"% 	c #494D30",
"& 	c #E8EE44",
"* 	c #E7EA46",
"= 	c #E3E149",
"- 	c #A28247",
"; 	c #514334",
"> 	c #141A2E",
", 	c #9F9F3B",
"' 	c #D1AD53",
") 	c #D6BF50",
"! 	c #CCA353",
"~ 	c #725C3B",
"{ 	c #343741",
"] 	c #7E7F82",
"^ 	c #42362E",
"/ 	c #B8934D",
"( 	c #79613C",
"_ 	c #161C2E",
": 	c #53545A",
"< 	c #FDFDFD",
"[ 	c #F4F4F4",
"} 	c #76785D",
"| 	c #131A2E",
"1 	c #11182E",
"2 	c #141A2F",
"3 	c #BBBCBD",
"4 	c #EDEDEE",
"5 	c #E1E5A4",
"6 	c #8D9236",
"7 	c #444830",
"8 	c #B4BA3F",
"9 	c #E6EC70",
"0 	c #E4EB44",
"a 	c #A8AE39",
"b 	c #5B5E31",
"c 	c #373031",
"d 	c #4C5030",
"e 	c #E2E943",
"f 	c #F4F7BF",
"g 	c #FFFFFE",
"h 	c #FEFEF7",
"i 	c #F0F0AE",
"j 	c #907542",
"k 	c #1C212E",
"l 	c #B0B53B",
"m 	c #E9F044",
"n 	c #F5F8C4",
"o 	c #FFFFFF",
"p 	c #FBF9F8",
"q 	c #FDFEF6",
"r 	c #EAF05B",
"s 	c #D8C44E",
"t 	c #866C40",
"u 	c #414530",
"v 	c #E4EB43",
"w 	c #EFF2BF",
"x 	c #DACAC3",
"y 	c #B79079",
"z 	c #FCFCF1",
"A 	c #E9F049",
"B 	c #DAC94E",
"C 	c #C39C50",
"D 	c #151C2E",
"E 	c #272C2E",
"F 	c #393631",
"G 	c #B89551",
"H 	c #A69344",
"I 	c #25222E",
"J 	c #8A624A",
"K 	c #BA9774",
"L 	c #EAF061",
"M 	c #E6E946",
"N 	c #2B2F2F",
"O 	c #D8DE41",
"P 	c #DED24C",
"Q 	c #CBA353",
"R 	c #352F30",
"S 	c #3A3231",
"T 	c #BE994F",
"U 	c #896649",
"V 	c #B28857",
"W 	c #E8EE45",
"X 	c #23282E",
"Y 	c #DDE0A3",
"Z 	c #FAFCE4",
"` 	c #E8EA5D",
" .	c #D7C64D",
"..	c #363031",
"+.	c #5A4A36",
"@.	c #DACF4B",
"#.	c #E9EF44",
"$.	c #DDDD49",
"%.	c #E4E846",
"&.	c #D9C74E",
"*.	c #1C222E",
"=.	c #D1D744",
"-.	c #FBFCE7",
";.	c #FFFFFD",
">.	c #EBF161",
",.	c #E3E546",
"'.	c #3A3C30",
").	c #564835",
"!.	c #C2C83E",
"~.	c #CEA554",
"{.	c #1B212E",
"].	c #DFE648",
"^.	c #FDFEF5",
"/.	c #F1F5A8",
"(.	c #D0C557",
"_.	c #CCBE4F",
":.	c #E7EE44",
"<.	c #464A30",
"[.	c #8A8F36",
"}.	c #3A3031",
"|.	c #CDA553",
"1.	c #D7C04F",
"2.	c #D2B152",
"3.	c #C09456",
"4.	c #A27354",
"5.	c #8A6F40",
"6.	c #DFD54B",
"7.	c #E9F03B",
"8.	c #E9F043",
"9.	c #E0E148",
"0.	c #826147",
"a.	c #C6CC3E",
"b.	c #BCBA41",
"c.	c #423732",
"d.	c #CBA154",
"e.	c #B68757",
"f.	c #AB7958",
"g.	c #AC7A58",
"h.	c #A37454",
"i.	c #896E40",
"j.	c #D0C54E",
"k.	c #89614A",
"l.	c #0A0F2E",
"m.	c #00072D",
"n.	c #939837",
"o.	c #D5BC50",
"p.	c #B58757",
"q.	c #A87756",
"r.	c #493736",
"s.	c #D4B751",
"t.	c #E8ED45",
"u.	c #B18657",
"v.	c #CFC44E",
"w.	c #D2C74E",
"x.	c #C3C045",
"y.	c #D3D940",
"z.	c #DACA4E",
"A.	c #BB8E56",
"B.	c #956A4F",
"C.	c #563F3A",
"D.	c #CFA654",
"E.	c #E0DB4A",
"F.	c #C1AA53",
"G.	c #8C644C",
"H.	c #131B2E",
"I.	c #C69E51",
"J.	c #D5BB51",
"K.	c #E9F144",
"L.	c #E8EF44",
"M.	c #D4B951",
"N.	c #B48557",
"O.	c #8B7041",
"P.	c #CEA454",
"Q.	c #DDD24C",
"R.	c #E4E348",
"S.	c #CCA254",
"T.	c #AC7B58",
"U.	c #705042",
"V.	c #B4904C",
"W.	c #CEA354",
"X.	c #94694F",
"Y.	c #121B2E",
"Z.	c #64493E",
"`.	c #B68F50",
" +	c #C99F55",
".+	c #CEA654",
"++	c #C39755",
"@+	c #8A634B",
"#+	c #694C3F",
"$+	c #A17254",
"%+	c #BA8C57",
"&+	c #C59A56",
"*+	c #AE7C58",
"=+	c #AB7A58",
"-+	c #90664D",
";+	c #1B1E2E",
">+	c #181D2E",
",+	c #191D2E",
"                                                                                                                                ",
"                                                                                                                                ",
"                                                                                                                                ",
"                                                                                                                                ",
"                                                                                                                                ",
"                                                                                                                                ",
"                                                                                                                                ",
"                                                                                                                                ",
"                                                                                                                                ",
"                                                                                                                                ",
"                                                                                                                                ",
"                                                                                                                                ",
"                                                                                                                                ",
"                                                                                                                                ",
"                                                                                                                                ",
"                                                                                                                                ",
"                                                                                                                                ",
"                                                                                                                                ",
"                                                                                                                                ",
"                                                                                                                                ",
"                                                                                                                                ",
"                                                                                                                                ",
"                                                                                                                                ",
"                                                                                                                                ",
"                                                                    . + @ # $                                                   ",
"                                                                      % & * = - ;                                               ",
"                                                                      > , ' ) ! ~                                               ",
"                                                                      { ] ^ / ( _                                               ",
"                                                                      : < [ } %                                                 ",
"                                                                  | 1 2 3 4 5 6 _                                               ",
"                                                              _ 7 8 9 0 a b c _                                                 ",
"                                                              d e f g h h i j _                                                 ",
"                                                            k l m n o p q r s t _                                               ",
"                                                          _ u v v w x y z A B C D                                               ",
"                                                      _ E F G H k I J K L m M C D                                               ",
"                                                      N O P Q R S T U V W m M C D                                               ",
"                                                    X Y Z `  ...+.@.#.$.%.m &.C D                                               ",
"                                                  *.=.-.;.>.,.'.D ).!.m m * ~.C D                                               ",
"                                                  {.].^./.(._.:.<.[.}.|.1.2.3.4.D                                               ",
"                                                  5.6.7.8.9.0.> a.b.c.d.e.f.g.h.D                                               ",
"                                                  i.B m m m j.k.l.m.n.& o.p.q.r.                                                ",
"                                                  i.s.t.m W u.v.w.x.y.m z.A.B.C.                                                ",
"                                                  5.D.E.m W F.W m m m m z.A.g.G._                                               ",
"                                                  H.I.J.#.m K.m m m m L.M.N.g.h.D                                               ",
"                                                  _ O.~.P.Q.R.K.K.K.R.o.S.T.g.U._                                               ",
"                                                    _ V.~.~.P.W.W.W.P.~.e.g.X.Y.                                                ",
"                                                    _ Z.`. +.+~.~.~.++g.f.@+_ _                                                 ",
"                                                      _ . #+$+%+&+*+=+-+;+_ _                                                   ",
"                                                          _ >+,+,+,+,+_ _                                                       ",
"                                                                                                                                ",
"                                                                                                                                ",
"                                                                                                                                ",
"                                                                                                                                ",
"                                                                                                                                ",
"                                                                                                                                ",
"                                                                                                                                ",
"                                                                                                                                ",
"                                                                                                                                ",
"                                                                                                                                ",
"                                                                                                                                ",
"                                                                                                                                ",
"                                                                                                                                ",
"                                                                                                                                ",
"                                                                                                                                "};
