/* XPM */
static char * oritoabajo_xpm[] = {
"64 64 258 2",
"  	c None",
". 	c #31352F",
"+ 	c #20252E",
"@ 	c #7C8134",
"# 	c #626532",
"$ 	c #4D5030",
"% 	c #898D35",
"& 	c #D4D842",
"* 	c #D5D941",
"= 	c #A2A739",
"- 	c #24283A",
"; 	c #858C48",
"> 	c #C5A950",
", 	c #DED64A",
"' 	c #D2CD46",
") 	c #7C623D",
"! 	c #727277",
"~ 	c #ACAEAE",
"{ 	c #9B8566",
"] 	c #DAD648",
"^ 	c #C9A551",
"/ 	c #907342",
"( 	c #2B2F2E",
"_ 	c #474A3C",
": 	c #505244",
"< 	c #494B34",
"[ 	c #898A8A",
"} 	c #EEEEEF",
"| 	c #B3B2AD",
"1 	c #786D44",
"2 	c #82693F",
"3 	c #302A30",
"4 	c #2E322F",
"5 	c #797E31",
"6 	c #D2D688",
"7 	c #EAEEAA",
"8 	c #DEE379",
"9 	c #878A44",
"0 	c #ABAAAA",
"a 	c #E2E5B3",
"b 	c #868A45",
"c 	c #2F2B30",
"d 	c #21262E",
"e 	c #777B33",
"f 	c #E2E94A",
"g 	c #F5F7D0",
"h 	c #FDFDF8",
"i 	c #FBFCED",
"j 	c #E6E88C",
"k 	c #A89F4D",
"l 	c #86884D",
"m 	c #9A9F39",
"n 	c #151B2E",
"o 	c #515531",
"p 	c #ABB039",
"q 	c #E9F04C",
"r 	c #F7F9D5",
"s 	c #F2EEEC",
"t 	c #F9F8EF",
"u 	c #EFF490",
"v 	c #C9C043",
"w 	c #695738",
"x 	c #3A3D2F",
"y 	c #22272E",
"z 	c #2F2631",
"A 	c #95973A",
"B 	c #D6DD40",
"C 	c #D2D847",
"D 	c #E3E3C1",
"E 	c #C1A293",
"F 	c #EDE8D6",
"G 	c #EEF48D",
"H 	c #E0DD45",
"I 	c #C8A950",
"J 	c #3D3532",
"K 	c #252A2F",
"L 	c #525635",
"M 	c #606334",
"N 	c #95724B",
"O 	c #C1A050",
"P 	c #636333",
"Q 	c #665F36",
"R 	c #726C50",
"S 	c #A77F5A",
"T 	c #DCD872",
"U 	c #EAF154",
"V 	c #E3E048",
"W 	c #D2B053",
"X 	c #4F4134",
"Y 	c #161C2E",
"Z 	c #1B212E",
"` 	c #696D3B",
" .	c #DCE177",
"..	c #DDDD65",
"+.	c #D1B74F",
"@.	c #B5924C",
"#.	c #564835",
"$.	c #B9964E",
"%.	c #D2CB47",
"&.	c #C4B250",
"*.	c #C5B154",
"=.	c #EAF244",
"-.	c #E2DE49",
";.	c #D1AE53",
">.	c #A18147",
",.	c #141B2E",
"'.	c #4A4E30",
").	c #DADF74",
"!.	c #FDFDF7",
"~.	c #F4F6C1",
"{.	c #E0DC3F",
"].	c #BBA24A",
"^.	c #454531",
"/.	c #846A3F",
"(.	c #D1C848",
"_.	c #E2E546",
":.	c #E5EA46",
"<.	c #E9F044",
"[.	c #DACA4D",
"}.	c #CCA354",
"|.	c #A9874A",
"1.	c #00002D",
"2.	c #B2B73B",
"3.	c #F3F6CB",
"4.	c #FEFEF8",
"5.	c #EEECC1",
"6.	c #CFC344",
"7.	c #D8D946",
"8.	c #A3A839",
"9.	c #4C4732",
"0.	c #514C32",
"a.	c #BBA948",
"b.	c #E0DE49",
"c.	c #E2E048",
"d.	c #D2B552",
"e.	c #BB8D56",
"f.	c #936A4D",
"g.	c #00002E",
"h.	c #C0BF41",
"i.	c #EDF18A",
"j.	c #F0F496",
"k.	c #E1E257",
"l.	c #BDA053",
"m.	c #B29E4D",
"n.	c #6D6E35",
"o.	c #C3BB45",
"p.	c #856F3E",
"q.	c #AF9149",
"r.	c #C19B54",
"s.	c #BA9156",
"t.	c #B68857",
"u.	c #AD7C57",
"v.	c #8B644B",
"w.	c #151C2E",
"x.	c #0E172E",
"y.	c #B6954B",
"z.	c #E7EC4D",
"A.	c #E9F04D",
"B.	c #E9F043",
"C.	c #D2C84E",
"D.	c #A98254",
"E.	c #856A45",
"F.	c #96983A",
"G.	c #5B5C32",
"H.	c #BCB543",
"I.	c #CFB452",
"J.	c #B38357",
"K.	c #AC7A58",
"L.	c #9A6D51",
"M.	c #3E3034",
"N.	c #10192E",
"O.	c #E6E847",
"P.	c #CEC14F",
"Q.	c #B18856",
"R.	c #AF8655",
"S.	c #987B4B",
"T.	c #525531",
"U.	c #D7DC41",
"V.	c #E4E547",
"W.	c #C29556",
"X.	c #A27354",
"Y.	c #5F453C",
"Z.	c #1B1E2E",
"`.	c #0D192E",
" +	c #B4904C",
".+	c #D9C64E",
"++	c #E8EE45",
"@+	c #EAF343",
"#+	c #C6B252",
"$+	c #D1C74E",
"%+	c #E4EA45",
"&+	c #E2E943",
"*+	c #E8EF44",
"=+	c #E5E747",
"-+	c #C39755",
";+	c #AB7958",
">+	c #9D6F52",
",+	c #312932",
"'+	c #A08147",
")+	c #CDA853",
"!+	c #DCCF4D",
"~+	c #E6EA46",
"{+	c #E7ED45",
"]+	c #DFD54B",
"^+	c #C39656",
"/+	c #AA7857",
"(+	c #352B32",
"_+	c #393131",
":+	c #C49D51",
"<+	c #CFA953",
"[+	c #D3B651",
"}+	c #DDD14C",
"|+	c #E6E946",
"1+	c #E7EC46",
"2+	c #E7EC45",
"3+	c #E0DA4A",
"4+	c #B58657",
"5+	c #92674D",
"6+	c #2D2631",
"7+	c #977A44",
"8+	c #CAA253",
"9+	c #CEA554",
"0+	c #D0AD53",
"a+	c #CEA853",
"b+	c #C49955",
"c+	c #AB7957",
"d+	c #A47455",
"e+	c #58403A",
"f+	c #181D2E",
"g+	c #403533",
"h+	c #937049",
"i+	c #C09951",
"j+	c #C79F53",
"k+	c #CBA254",
"l+	c #CDA454",
"m+	c #C89F54",
"n+	c #B38755",
"o+	c #A87955",
"p+	c #91674D",
"q+	c #573F3A",
"r+	c #20202F",
"s+	c #352D32",
"t+	c #493C33",
"u+	c #6A523C",
"v+	c #9D744F",
"w+	c #BA944E",
"x+	c #AF884F",
"y+	c #9F7351",
"z+	c #5D453B",
"A+	c #433335",
"B+	c #372C33",
"C+	c #1F202F",
"D+	c #262330",
"E+	c #382D32",
"F+	c #433932",
"G+	c #3F3433",
"H+	c #382D33",
"I+	c #252230",
"                                                                                                                                ",
"                                                                                                                                ",
"                                                                                                                                ",
"                                                                                                                                ",
"                                                                                                                                ",
"                                                                                                                                ",
"                                                                                                                                ",
"                                                                                                                                ",
"                                                                                                                                ",
"                                                                                                                                ",
"                                                                                                                                ",
"                                                                                                                                ",
"                                                                                                                                ",
"                                                                                                                                ",
"                                                                                                                                ",
"                                                                                                                                ",
"                                                                                                                                ",
"                                                                                                                                ",
"                                                                                                                                ",
"                                                                                                                                ",
"                                                                                                                                ",
"                                                                        . +                                                     ",
"                                                                        @ # $                                                   ",
"                                                                        % & * =                                                 ",
"                                                                      - ; > , ' )                                               ",
"                                                                      ! ~ { ] ^ /                                               ",
"                                                              ( _ : < [ } | 1 2 3                                               ",
"                                                            4 5 6 7 8 9 0 a b c                                                 ",
"                                                          d e f g h i j k l m n                                                 ",
"                                                          o p q r s t u v w x                                                   ",
"                                                      y z A B C D E F G H I J                                                   ",
"                                                  K L M N O P Q R S T U V W X Y                                                 ",
"                                                Z `  ...+.@.#.$.%.&.*.=.-.;.>.,.                                                ",
"                                                '.).!.~.{.].^./.(._.:.<.[.}.|.,.                                                ",
"                                              1.2.3.4.5.6.7.8.9.0.a.b.c.d.e.f.n                                                 ",
"                                              g.h.i.j.k.l.m.n.o.p.q.r.s.t.u.v.w.                                                ",
"                                              x.y.z.A.B.C.D.E.F.G.H.I.J.K.L.M.                                                  ",
"                                              N.@.O.<.=.P.Q.R.S.T.U.V.W.X.Y.Z.                                                  ",
"                                              `. +.+++@+#+$+:.%+&+*+=+-+;+>+,+                                                  ",
"                                                '+)+!+++~+{+<.<.<.++]+^+;+/+(+Y                                                 ",
"                                                _+:+<+[+}+|+1+1+2+3+)+4+K.5+6+                                                  ",
"                                                n 7+8+9+<+0+0+0+0+a+b+c+d+e+f+                                                  ",
"                                                  g+h+i+j+k+l+}.m+n+o+p+q+r+Y                                                   ",
"                                                    s+t+u+v+w+x+y+z+A+B+C+Y                                                     ",
"                                                        D+E+F+G+H+I+                                                            ",
"                                                                                                                                ",
"                                                                                                                                ",
"                                                                                                                                ",
"                                                                                                                                ",
"                                                                                                                                ",
"                                                                                                                                ",
"                                                                                                                                ",
"                                                                                                                                ",
"                                                                                                                                ",
"                                                                                                                                ",
"                                                                                                                                ",
"                                                                                                                                ",
"                                                                                                                                ",
"                                                                                                                                ",
"                                                                                                                                ",
"                                                                                                                                ",
"                                                                                                                                ",
"                                                                                                                                ",
"                                                                                                                                "};
