/* XPM */
static char * player_frame2_xpm[] = {
"64 64 370 2",
"  	c None",
". 	c #C6CEDC",
"+ 	c #B1BBCD",
"@ 	c #C0C8D6",
"# 	c #60646D",
"$ 	c #828FA5",
"% 	c #91A1B9",
"& 	c #B2BCCE",
"* 	c #C8D0DE",
"= 	c #95A2B7",
"- 	c #99A0AD",
"; 	c #6B7484",
"> 	c #8997AE",
", 	c #A1AFC4",
"' 	c #BAC5D6",
") 	c #C7D0DF",
"! 	c #C6D0DF",
"~ 	c #8492A8",
"{ 	c #5B6272",
"] 	c #8A98AF",
"^ 	c #93A1B9",
"/ 	c #BBBCC8",
"( 	c #CDC8D0",
"_ 	c #CCC8D0",
": 	c #CDC8CF",
"< 	c #8896AD",
"[ 	c #91A0B8",
"} 	c #96A1B7",
"| 	c #CCA499",
"1 	c #E1A788",
"2 	c #E1A787",
"3 	c #DFA688",
"4 	c #C7CFDD",
"5 	c #BBC4D5",
"6 	c #95A4BC",
"7 	c #95A1B8",
"8 	c #C19F99",
"9 	c #C09E9A",
"0 	c #C9B2B2",
"a 	c #E3BDA9",
"b 	c #E1B191",
"c 	c #BCA8AB",
"d 	c #C6CBD9",
"e 	c #BFC8D7",
"f 	c #AFBACC",
"g 	c #99A3B8",
"h 	c #B89FA0",
"i 	c #DE9C76",
"j 	c #A38A89",
"k 	c #8697AA",
"l 	c #CEBAAD",
"m 	c #D7B79C",
"n 	c #8491A4",
"o 	c #C1C9D8",
"p 	c #C5CDDB",
"q 	c #B3BDCF",
"r 	c #94A3BB",
"s 	c #9DA1B3",
"t 	c #D39D85",
"u 	c #E39B6C",
"v 	c #9F6D4C",
"w 	c #614537",
"x 	c #BC9877",
"y 	c #D6AE89",
"z 	c #6F5141",
"A 	c #B6C0D1",
"B 	c #99A7BD",
"C 	c #92A1B9",
"D 	c #94A1B8",
"E 	c #A6A0AE",
"F 	c #D99E80",
"G 	c #DB9564",
"H 	c #D38F62",
"I 	c #E4AF86",
"J 	c #EBBB92",
"K 	c #D59369",
"L 	c #B7C1D1",
"M 	c #A2AFC3",
"N 	c #8F9EB7",
"O 	c #909FB8",
"P 	c #95A3BA",
"Q 	c #C9B9BB",
"R 	c #E3A889",
"S 	c #DFB09D",
"T 	c #D8C7C4",
"U 	c #D9C9C6",
"V 	c #D6C0BD",
"W 	c #BBC5D5",
"X 	c #A5B1C5",
"Y 	c #BDC4D0",
"Z 	c #9FA8B8",
"` 	c #D1B7B3",
" .	c #C8BABE",
"..	c #B3C0D2",
"+.	c #B4BFD1",
"@.	c #B6C1D2",
"#.	c #A6B2C6",
"$.	c #F2F2F2",
"%.	c #C1C3C5",
"&.	c #9DA8B9",
"*.	c #B5BDCD",
"=.	c #AAB4C7",
"-.	c #98A6BD",
";.	c #9EABC0",
">.	c #BEC7D6",
",.	c #C5CDDC",
"'.	c #FFFFFF",
").	c #FEFDFD",
"!.	c #EFEFEF",
"~.	c #BABDC0",
"{.	c #9AA5B8",
"].	c #99A7BE",
"^.	c #96A4BB",
"/.	c #A7B3C6",
"(.	c #BFC8D8",
"_.	c #B9C2D3",
":.	c #9FACC1",
"<.	c #9EABC1",
"[.	c #FDFDFD",
"}.	c #E8E8E8",
"|.	c #B6BAC0",
"1.	c #96A2B6",
"2.	c #90A0B8",
"3.	c #9CA9BF",
"4.	c #B5BFD0",
"5.	c #95A4BB",
"6.	c #9CAAC0",
"7.	c #EAEAEA",
"8.	c #D9D9D9",
"9.	c #B2B7C0",
"0.	c #96A2B7",
"a.	c #AEB9CC",
"b.	c #96A4BC",
"c.	c #BCC5D5",
"d.	c #BFBFBF",
"e.	c #E6E6E6",
"f.	c #D4D5D5",
"g.	c #ABB1BC",
"h.	c #95A2B8",
"i.	c #93A2BA",
"j.	c #92A0B8",
"k.	c #8795AB",
"l.	c #BEC7D7",
"m.	c #C0C0C0",
"n.	c #989898",
"o.	c #B9B9B9",
"p.	c #D1D2D3",
"q.	c #A0A7B4",
"r.	c #8492A9",
"s.	c #474E60",
"t.	c #23243A",
"u.	c #A8B4C7",
"v.	c #F3F3F3",
"w.	c #CACACA",
"x.	c #999999",
"y.	c #878787",
"z.	c #949494",
"A.	c #C6C6C6",
"B.	c #BAB9B9",
"C.	c #868A94",
"D.	c #67738D",
"E.	c #586278",
"F.	c #1D1D35",
"G.	c #191731",
"H.	c #EBEBEB",
"I.	c #ACACAC",
"J.	c #858585",
"K.	c #A0A0A0",
"L.	c #8A8B8F",
"M.	c #5E6275",
"N.	c #384163",
"O.	c #242847",
"P.	c #1B1A34",
"Q.	c #1A1932",
"R.	c #ADADAD",
"S.	c #898989",
"T.	c #8F8F8F",
"U.	c #989897",
"V.	c #676B79",
"W.	c #414B6C",
"X.	c #394262",
"Y.	c #282C4A",
"Z.	c #1B1B34",
"`.	c #8D8D8D",
" +	c #A9A9A9",
".+	c #B1B1B1",
"++	c #959595",
"@+	c #646777",
"#+	c #2D3352",
"$+	c #272B49",
"%+	c #EDEDED",
"&+	c #D0D0D0",
"*+	c #A4A4A4",
"=+	c #8A8A89",
"-+	c #99999A",
";+	c #777A84",
">+	c #505872",
",+	c #384061",
"'+	c #292E4D",
")+	c #E1E1E1",
"!+	c #B2B2B2",
"~+	c #71737B",
"{+	c #6B6B6D",
"]+	c #6A696B",
"^+	c #51566D",
"/+	c #3C4669",
"(+	c #343B5B",
"_+	c #2A2F4F",
":+	c #E2E2E2",
"<+	c #B2B3B4",
"[+	c #3F4663",
"}+	c #232232",
"|+	c #1C1925",
"1+	c #353C58",
"2+	c #333A58",
"3+	c #242844",
"4+	c #1A1931",
"5+	c #FEFEFE",
"6+	c #E0E0DF",
"7+	c #A9ADB4",
"8+	c #2B2E41",
"9+	c #0E081E",
"0+	c #0D071D",
"a+	c #1A1A2F",
"b+	c #1A1A30",
"c+	c #151329",
"d+	c #141227",
"e+	c #130E24",
"f+	c #1A1830",
"g+	c #1C1932",
"h+	c #1C1931",
"i+	c #B2A8A7",
"j+	c #9D9494",
"k+	c #838691",
"l+	c #8390A6",
"m+	c #21212F",
"n+	c #010010",
"o+	c #1E1F39",
"p+	c #222440",
"q+	c #22243F",
"r+	c #1D1E37",
"s+	c #15132A",
"t+	c #1A152A",
"u+	c #2E1C29",
"v+	c #301D28",
"w+	c #510000",
"x+	c #3F0000",
"y+	c #5B6071",
"z+	c #8796AE",
"A+	c #636D7F",
"B+	c #5D6779",
"C+	c #3A415A",
"D+	c #292E4E",
"E+	c #2B304F",
"F+	c #242744",
"G+	c #201A31",
"H+	c #361E23",
"I+	c #341C20",
"J+	c #331B1F",
"K+	c #87604D",
"L+	c #7C543F",
"M+	c #836E6F",
"N+	c #9E9DAD",
"O+	c #8A93A9",
"P+	c #8390A7",
"Q+	c #49516A",
"R+	c #272B4C",
"S+	c #2A2F4E",
"T+	c #242743",
"U+	c #1F1A31",
"V+	c #3A2024",
"W+	c #5B3329",
"X+	c #61362B",
"Y+	c #E7BD95",
"Z+	c #DFAB82",
"`+	c #D9966C",
" @	c #CA9074",
".@	c #6C525D",
"+@	c #4B4F67",
"@@	c #333956",
"#@	c #AF6544",
"$@	c #B26745",
"%@	c #FBCFA3",
"&@	c #F7C79B",
"*@	c #F1B485",
"=@	c #D38E61",
"-@	c #533645",
";@	c #373D5D",
">@	c #394263",
",@	c #303656",
"'@	c #252845",
")@	c #191932",
"!@	c #412935",
"~@	c #B56948",
"{@	c #C1704B",
"]@	c #BA9274",
"^@	c #CEA683",
"/@	c #C99B79",
"(@	c #AB7760",
"_@	c #46445F",
":@	c #424C6F",
"<@	c #333A5A",
"[@	c #21233F",
"}@	c #191831",
"|@	c #2F2133",
"1@	c #A35F44",
"2@	c #C1704A",
"3@	c #571C27",
"4@	c #5D292D",
"5@	c #613234",
"6@	c #553440",
"7@	c #3F3C56",
"8@	c #414A6C",
"9@	c #424C6E",
"0@	c #3F496A",
"a@	c #323858",
"b@	c #1A1831",
"c@	c #1B1932",
"d@	c #561A26",
"e@	c #482239",
"f@	c #2E2B4A",
"g@	c #2E3656",
"h@	c #414B6D",
"i@	c #4B2438",
"j@	c #362C48",
"k@	c #282E4E",
"l@	c #303655",
"m@	c #232643",
"n@	c #1D1D37",
"o@	c #571C26",
"p@	c #3C2A45",
"q@	c #282F4E",
"r@	c #373F60",
"s@	c #1F203B",
"t@	c #333A59",
"u@	c #3E4869",
"v@	c #2F3554",
"w@	c #1F213C",
"x@	c #292F4E",
"y@	c #40496B",
"z@	c #313857",
"A@	c #20213C",
"B@	c #2C3353",
"C@	c #333C5C",
"D@	c #333B5A",
"E@	c #432E42",
"F@	c #3F2C41",
"G@	c #312A42",
"H@	c #2B2E4C",
"I@	c #241B2E",
"J@	c #291B2C",
"K@	c #251B2E",
"L@	c #5C2C2A",
"M@	c #562A29",
"N@	c #3B2124",
"O@	c #381F22",
"P@	c #391F21",
"Q@	c #321D27",
"R@	c #5D2C28",
"S@	c #562926",
"T@	c #3C2021",
"U@	c #371F22",
"V@	c #5E2C28",
"W@	c #582A27",
"X@	c #482424",
"Y@	c #522825",
"Z@	c #522826",
"`@	c #4A2524",
" #	c #3B2021",
".#	c #3A1F21",
"                                                                                                                                ",
"                                                                                                                                ",
"                                                                                                                                ",
"                                                                                                                                ",
"                                                                                                                                ",
"                                                                                                                                ",
"                                                                                                                                ",
"                                                                                                                                ",
"                                                                                                                                ",
"                                                                                                                                ",
"                                                                                                                                ",
"                                                                                                                                ",
"                                                            . .                                                                 ",
"                                                            + @ # $ % & *                                                       ",
"                                                            = - ; > , ' ) !                                                     ",
"                                                            ~ { ] ^ / ( _ _ :                                                   ",
"                                                              < [ } | 1 1 2 3   4                                               ",
"                                                            5 6 7 8 9 0 a b c d                                                 ",
"                                                          e f g h i j k l m n o                                                 ",
"                                                      4 p q r s t u v w x y z                                                   ",
"                                                  4 4 4 A B C D E F G H I J K                                                   ",
"                                                4 4 * L M N O % P Q R S T U V                                                   ",
"                                                4 4 W X     Y Z P f `  ...+.@.                                                  ",
"                                              4 4 4 #.      $.%.&.P *.=.-.;.#.>.                                                ",
"                                            4 4 4 ,.X     '.).!.~.{.].^./.(._.:.                                                ",
"                                            4 4 . f <.    '.'.[.}.|.1.2.3.4.>.5.                                                ",
"                                          4 4 . A 6.    '.'.'.[.7.8.9.0.2.<.a.b.                                                ",
"                                          4 . c.3.    '.'.'.[.!.d.e.f.g.h.i.j.k.                                                ",
"                                          . l.:.      '.'.'.$.m.n.o.e.p.q.[ r.s.t.                                              ",
"                                          u.#.        '.'.v.w.x.y.z.A.B.C.D.E.F.G.                                              ",
"                                          [ [         '.'.H.I.y.J.z.K.L.M.N.O.P.Q.Q.                                            ",
"                                            C       '.'.'.H.R.S.T.I.U.V.W.X.Y.Z.Q.Q.                                            ",
"                                                    '.'.'.7.R.`. +.+++@+N.#+$+Z.Q.Q.                                            ",
"                                                    '.'.%+&+*+=+n.-+;+>+,+'+$+Z.Q.Q.                                            ",
"                                                    '.'.)+!+  ~+{+]+^+/+(+_+Y.Z.Q.Q.                                            ",
"                                                    '.'.:+<+  [+}+|+1+2+$+$+3+4+Q.Q.                                            ",
"                                                      5+6+7+$ 8+9+0+a+b+c+c+d+e+f+g+h+                                          ",
"                                                      i+j+k+l+m+n+o+p+q+r+c+s+t+u+v+v+                                          ",
"                                                      w+x+y+z+A+B+C+D+E+F+Q.Q.G+H+I+J+                                          ",
"                                                      K+L+M+N+O+P+Q+R+S+T+Q.Q.U+V+W+X+                                          ",
"                                                      Y+Z+`+ @.@+@@@S+S+T+Q.Q.Q.  #@$@                                          ",
"                                                      %@&@*@=@-@;@>@,@'@o+Q.Q.)@!@~@{@                                          ",
"                                                      ]@^@/@(@_@W.:@<@[@}@Q.Q.Q.|@1@2@                                          ",
"                                                    3@4@5@6@7@8@9@0@a@[@b@Q.Q.Q.c@                                              ",
"                                                  3@3@d@e@f@g@h@h@<@E+q+b@Q.Q.Q.Q.                                              ",
"                                                3@3@3@i@j@k@l@h@h@l@m@n@Q.Q.Q.Q.Q.                                              ",
"                                                3@3@o@p@q@#+r@h@h@,@s@}@Q.Q.Q.Q.Q.                                              ",
"                                              3@3@3@  S+'+t@h@9@u@v@w@b@Q.Q.Q.Q.Q.                                              ",
"                                            3@3@3@    x@'+t@h@y@z@E+A@b@Q.Q.Q.Q.                                                ",
"                                          3@3@          x@B@C@D@E+'+n@)@)@)@Q.Q.                                                ",
"                                          3@              E@F@G@H@    I@J@K@Q.Q.                                                ",
"                                                          L@M@N@      O@P@Q@c@                                                  ",
"                                                          R@S@T@      P@P@U@                                                    ",
"                                                        V@W@X@        P@P@P@                                                    ",
"                                                      Y@Z@`@P@        P@P@P@P@                                                  ",
"                                                         #.#P@          P@P@P@P@                                                ",
"                                                                                                                                ",
"                                                                                                                                ",
"                                                                                                                                ",
"                                                                                                                                ",
"                                                                                                                                ",
"                                                                                                                                ",
"                                                                                                                                ",
"                                                                                                                                "};
