/* XPM */
static char * player_frame1_xpm[] = {
"83 64 439 2",
"  	c None",
". 	c #BFC8D7",
"+ 	c #C2CAD9",
"@ 	c #C6CEDC",
"# 	c #9BA8BE",
"$ 	c #AAB5C8",
"% 	c #A2AEC2",
"& 	c #667184",
"* 	c #535A6A",
"= 	c #8D9BB2",
"- 	c #94A3BB",
"; 	c #B0BACC",
"> 	c #C7CFDD",
", 	c #9DABC1",
"' 	c #A2AEC1",
") 	c #778192",
"! 	c #677184",
"~ 	c #7D8A9F",
"{ 	c #93A1B8",
"] 	c #ACB8CC",
"^ 	c #BEC8D8",
"/ 	c #C6D0DE",
"( 	c #C6D0DF",
"_ 	c #8897AF",
": 	c #677284",
"< 	c #7B879C",
"[ 	c #91A2BA",
"} 	c #97A4BA",
"| 	c #C6B7BB",
"1 	c #D6BEBB",
"2 	c #D4BDBB",
"3 	c #D3BDBC",
"4 	c #D4BEBC",
"5 	c #D5BEBB",
"6 	c #94A2B9",
"7 	c #90A0B8",
"8 	c #96A1B7",
"9 	c #A7A0AD",
"0 	c #CE9F8F",
"a 	c #DEA384",
"b 	c #E3A786",
"c 	c #E6A67C",
"d 	c #DEA17E",
"e 	c #D8A58F",
"f 	c #C1C9D8",
"g 	c #A0ADC2",
"h 	c #91A0B9",
"i 	c #ACA0AA",
"j 	c #D29D86",
"k 	c #B49DA0",
"l 	c #B4B2BE",
"m 	c #D6C5C1",
"n 	c #EBC19F",
"o 	c #BEA9A6",
"p 	c #B1B4C4",
"q 	c #BDC6D6",
"r 	c #A9B4C8",
"s 	c #98A6BD",
"t 	c #B29FA5",
"u 	c #D59E84",
"v 	c #DD996C",
"w 	c #917874",
"x 	c #5F7485",
"y 	c #A79C95",
"z 	c #E6C09C",
"A 	c #9C8D85",
"B 	c #7B8A9C",
"C 	c #C9D1DE",
"D 	c #BBC5D5",
"E 	c #96A5BC",
"F 	c #91A0B8",
"G 	c #DF9867",
"H 	c #B0754B",
"I 	c #8F5B34",
"J 	c #B4855F",
"K 	c #EABD92",
"L 	c #B98A64",
"M 	c #8E5523",
"N 	c #C4CCDB",
"O 	c #B5BFD0",
"P 	c #96A4BB",
"Q 	c #92A1B9",
"R 	c #ADA2AC",
"S 	c #DCA488",
"T 	c #E39D6F",
"U 	c #E09D74",
"V 	c #E3AF8F",
"W 	c #EDC5A5",
"X 	c #E3B091",
"Y 	c #DEA282",
"Z 	c #B3BDCF",
"` 	c #97A5BC",
" .	c #94A3BA",
"..	c #A3ACC0",
"+.	c #C9C1C7",
"@.	c #DFAB91",
"#.	c #DAB3A5",
"$.	c #CCC8D0",
"%.	c #CECCD3",
"&.	c #CCC9D0",
"*.	c #CBC7CF",
"=.	c #ACB7CA",
"-.	c #A9B4C6",
";.	c #D5D9E1",
">.	c #B8BCC4",
",.	c #9AA4B5",
"'.	c #97A6BE",
").	c #AAB4C7",
"!.	c #CABCC0",
"~.	c #C1BAC3",
"{.	c #A8B5C9",
"].	c #A7B4C8",
"^.	c #B4BFD1",
"/.	c #C5CEDC",
"(.	c #BAC3D4",
"_.	c #BBC4D3",
":.	c #D7DCE3",
"<.	c #F9F9FA",
"[.	c #E2E1E1",
"}.	c #BBBEC4",
"|.	c #9AA5B6",
"1.	c #95A3BA",
"2.	c #ACB8CB",
"3.	c #A5B2C6",
"4.	c #A6B2C6",
"5.	c #A8B4C7",
"6.	c #AFB9CC",
"7.	c #B6C0D1",
"8.	c #C8CFDD",
"9.	c #C3CCDA",
"0.	c #A3AFC4",
"a.	c #D1D6DF",
"b.	c #FDFDFE",
"c.	c #FFFFFF",
"d.	c #FEFEFE",
"e.	c #E3E3E3",
"f.	c #B8BBC0",
"g.	c #9CA7B9",
"h.	c #9EABC1",
"i.	c #C4CDDB",
"j.	c #B0BBCD",
"k.	c #95A3BB",
"l.	c #A1AEC3",
"m.	c #D2D7E0",
"n.	c #FAFAFA",
"o.	c #E5E5E6",
"p.	c #B7B9BE",
"q.	c #9BA6B8",
"r.	c #9FACC1",
"s.	c #BCC5D5",
"t.	c #B0BACD",
"u.	c #C8D0DD",
"v.	c #ECECEC",
"w.	c #DCDCDB",
"x.	c #E2E2E3",
"y.	c #9BA5B5",
"z.	c #93A2BA",
"A.	c #A2AFC3",
"B.	c #9FACC2",
"C.	c #C8D0DE",
"D.	c #9BA9BE",
"E.	c #B9C1D0",
"F.	c #E6E8ED",
"G.	c #FDFDFD",
"H.	c #EDEDED",
"I.	c #C6C6C6",
"J.	c #B8B8B8",
"K.	c #E2E2E2",
"L.	c #DCDCDC",
"M.	c #BEC1C7",
"N.	c #9EA8B8",
"O.	c #92A2BA",
"P.	c #8693AA",
"Q.	c #778398",
"R.	c #C0C9D8",
"S.	c #A4AFC3",
"T.	c #E8EAEE",
"U.	c #CDCDCD",
"V.	c #9E9E9E",
"W.	c #929292",
"X.	c #B4B4B4",
"Y.	c #E4E4E4",
"Z.	c #D6D6D6",
"`.	c #A5A8AF",
" +	c #8D99AF",
".+	c #8896AE",
"++	c #677186",
"@+	c #282A3F",
"#+	c #9CA9BF",
"$+	c #9CAABF",
"%+	c #EBEDF1",
"&+	c #F8F8F8",
"*+	c #C9C9C9",
"=+	c #9B9B9B",
"-+	c #878787",
";+	c #939393",
">+	c #B6B6B6",
",+	c #ACACAC",
"'+	c #82848A",
")+	c #5C647E",
"!+	c #4B556F",
"~+	c #373C53",
"{+	c #191831",
"]+	c #8F9EB7",
"^+	c #F7F7F9",
"/+	c #F5F5F5",
"(+	c #D4D4D4",
"_+	c #AAAAAA",
":+	c #8D8D8D",
"<+	c #A0A0A0",
"[+	c #808188",
"}+	c #5A5F74",
"|+	c #424B6B",
"1+	c #2E3455",
"2+	c #1F213F",
"3+	c #1A1932",
"4+	c #8F9FB8",
"5+	c #EEEEEE",
"6+	c #B7B7B7",
"7+	c #919191",
"8+	c #8E8E8E",
"9+	c #A2A2A2",
"0+	c #B0B0B0",
"a+	c #949494",
"b+	c #696C79",
"c+	c #3F496B",
"d+	c #3A4263",
"e+	c #2F3555",
"f+	c #232642",
"g+	c #999999",
"h+	c #ADADAD",
"i+	c #AAAAAB",
"j+	c #8C8D8F",
"k+	c #646878",
"l+	c #3E4768",
"m+	c #2E3353",
"n+	c #2A2F4E",
"o+	c #89898A",
"p+	c #66697A",
"q+	c #485170",
"r+	c #3D4667",
"s+	c #2D3251",
"t+	c #B7B7B8",
"u+	c #7D7F89",
"v+	c #585A66",
"w+	c #535355",
"x+	c #525258",
"y+	c #464D68",
"z+	c #3B4467",
"A+	c #323959",
"B+	c #2B3150",
"C+	c #242643",
"D+	c #F0F0F0",
"E+	c #686B78",
"F+	c #151D3D",
"G+	c #010012",
"H+	c #0A061F",
"I+	c #2D334D",
"J+	c #2D334F",
"K+	c #21243F",
"L+	c #222540",
"M+	c #1D1E37",
"N+	c #17152D",
"O+	c #191832",
"P+	c #181933",
"Q+	c #F1EFEF",
"R+	c #DFDDDD",
"S+	c #A9A8A8",
"T+	c #59585B",
"U+	c #00000C",
"V+	c #0E081D",
"W+	c #141227",
"X+	c #17162C",
"Y+	c #151329",
"Z+	c #120E23",
"`+	c #120D22",
" @	c #110C21",
".@	c #161025",
"+@	c #20192E",
"@@	c #211A30",
"#@	c #8A7675",
"$@	c #806E6D",
"%@	c #5E5354",
"&@	c #353138",
"*@	c #1B1C2B",
"=@	c #212236",
"-@	c #262A47",
";@	c #272B49",
">@	c #242743",
",@	c #18162F",
"'@	c #17172F",
")@	c #22192D",
"!@	c #331D25",
"~@	c #361E24",
"{@	c #351E24",
"]@	c #510000",
"^@	c #470000",
"/@	c #382632",
"(@	c #667185",
"_@	c #77859A",
":@	c #6A758A",
"<@	c #363D58",
"[@	c #292D4D",
"}@	c #2B304F",
"|@	c #1C1C36",
"1@	c #191933",
"2@	c #221A2F",
"3@	c #321B22",
"4@	c #341C1F",
"5@	c #331C1F",
"6@	c #AE886C",
"7@	c #A77D60",
"8@	c #9E6E56",
"9@	c #B19491",
"0@	c #9E96A2",
"a@	c #6C778E",
"b@	c #363C58",
"c@	c #282D4C",
"d@	c #2A304F",
"e@	c #1C1C35",
"f@	c #121732",
"g@	c #462A33",
"h@	c #7C4734",
"i@	c #824A35",
"j@	c #E6BC95",
"k@	c #F0BF93",
"l@	c #E7A676",
"m@	c #E59E6E",
"n@	c #AB7964",
"o@	c #343B59",
"p@	c #2F3554",
"q@	c #292E4C",
"r@	c #252845",
"s@	c #1C1B35",
"t@	c #001331",
"u@	c #643B38",
"v@	c #B46947",
"w@	c #BE6E49",
"x@	c #BC6D49",
"y@	c #592029",
"z@	c #C1997A",
"A@	c #F3C69C",
"B@	c #EFBE93",
"C@	c #E6A576",
"D@	c #AB7867",
"E@	c #3F486A",
"F@	c #3D4768",
"G@	c #313757",
"H@	c #1C1D36",
"I@	c #1A1933",
"J@	c #643B39",
"K@	c #B46948",
"L@	c #C06F4A",
"M@	c #BF6F4A",
"N@	c #571C27",
"O@	c #571D27",
"P@	c #8A6250",
"Q@	c #A9856D",
"R@	c #A28573",
"S@	c #9A7262",
"T@	c #765B64",
"U@	c #434D6F",
"V@	c #414B6C",
"W@	c #323958",
"X@	c #222541",
"Y@	c #131732",
"Z@	c #432A35",
"`@	c #79473C",
" #	c #A25E43",
".#	c #571C26",
"+#	c #4E192E",
"@#	c #3A1B3C",
"##	c #1F274C",
"$#	c #253458",
"%#	c #374365",
"&#	c #424C6E",
"*#	c #414A6C",
"=#	c #171832",
"-#	c #071532",
";#	c #571C28",
">#	c #531F2E",
",#	c #422841",
"'#	c #2B2E4D",
")#	c #3C4566",
"!#	c #414B6D",
"~#	c #541E2C",
"{#	c #3F2943",
"]#	c #2E2E4C",
"^#	c #292F4E",
"/#	c #303756",
"(#	c #232541",
"_#	c #302E4B",
":#	c #2A2E4D",
"<#	c #2C3251",
"[#	c #2C3150",
"}#	c #1E1E38",
"|#	c #2D3352",
"1#	c #353D5C",
"2#	c #1E1F3A",
"3#	c #292E4D",
"4#	c #323858",
"5#	c #404A6B",
"6#	c #3A4364",
"7#	c #1F203B",
"8#	c #1A1831",
"9#	c #424C6D",
"0#	c #394162",
"a#	c #2E3453",
"b#	c #2C3352",
"c#	c #333B5B",
"d#	c #343C5C",
"e#	c #191932",
"f#	c #432E42",
"g#	c #412D42",
"h#	c #352A41",
"i#	c #2D2B46",
"j#	c #231A2F",
"k#	c #291B2C",
"l#	c #281B2D",
"m#	c #1F1A31",
"n#	c #5C2C2A",
"o#	c #5A2B29",
"p#	c #442325",
"q#	c #362025",
"r#	c #381F22",
"s#	c #371E23",
"t#	c #261B2E",
"u#	c #5D2C28",
"v#	c #5A2B27",
"w#	c #442323",
"x#	c #391F21",
"y#	c #5E2C28",
"z#	c #582A27",
"A#	c #4B2524",
"B#	c #412222",
"C#	c #522825",
"D#	c #522826",
"E#	c #3B2021",
"F#	c #3A1F21",
"                                                                                                                                                                      ",
"                                                                                                                                                                      ",
"                                                                                                                                                                      ",
"                                                                                                                                                                      ",
"                                                                                                                                                                      ",
"                                                                                                                                                                      ",
"                                                                                                                                                                      ",
"                                                                                                                                                                      ",
"                                                                                                                                                                      ",
"                                                                                                                                                                      ",
"                                                                                                                                                                      ",
"                                                                          . + @                                                                                       ",
"                                                                          # $ . % & * = - ; > >                                                                       ",
"                                                                            , ' ) ! ~ { ] ^ / / (                                                                     ",
"                                                                              _ : < [ } | 1 2 3 4 5                                                                   ",
"                                                                                6 7 8 9 0 a b c d e   >                                                               ",
"                                                                              f g h i j k l m n o p >                                                                 ",
"                                                                            q r s t u v w x y z A B                                                                   ",
"                                                                          C D E F t u G H I J K L M                                                                   ",
"                                                                        > N O P h Q R S T U V W X Y                                                                   ",
"                                                                      > > Z # `  .F ..+.@.#.$.%.&.*.                                                                  ",
"                                                                      > > =.-.;.>.,.'.).!.~.{.].].^.                                                                  ",
"                                                                    > /.(._.:.<.[.}.|.1.2.3.` 4.5.6.7.                                                                ",
"                                                                  > 8.9.0.a.b.c.d.e.f.g. .Q h.D i.j.k.                                                                ",
"                                                                  > > + l.m.c.c.c.n.o.p.q.Q  .r.s.t.Q                                                                 ",
"                                                                  u.. r E m.c.c.c.v.w.x.}.y.h z.A.B.z.                                                                ",
"                                                                C.C (.D.E.F.c.G.H.I.J.K.L.M.N. .O.P.Q.                                                                ",
"                                                                R.f Z S.T.c.c.n.U.V.W.X.Y.Z.`. +.+++@+                                                                ",
"                                                                #+$+s % %+c.c.&+*+=+-+;+>+,+'+)+!+~+{+                                                                ",
"                                                                F F ]+  ^+c./+(+_+:+:+<+=+[+}+|+1+2+3+3+                                                              ",
"                                                                  Q 4+  c.c.5+6+7+8+9+0+a+b+c+d+e+f+3+3+                                                              ",
"                                                                    ]+  c.c.5+J.W.g+h+i+j+k+l+m+n+f+3+3+                                                              ",
"                                                                        c.c.5+J.7+-+:+o+p+q+r+s+n+f+3+3+                                                              ",
"                                                                        c.c.5+t+u+v+w+x+y+z+A+B+n+C+3+3+                                                              ",
"                                                                          c.D+t+E+F+G+H+I+J+K+L+L+M+N+O+P+                                                            ",
"                                                                          Q+R+S+T+U+V+W+X+X+Y+Z+`+ @.@+@@@@@                                                          ",
"                                                                          #@$@%@&@*@=@-@;@;@>@3+,@'@)@!@~@{@                                                          ",
"                                                                          ]@^@/@(@_@:@<@[@}@;@|@3+1@2@3@4@5@                                                          ",
"                                                                          6@7@8@9@0@a@b@c@d@;@e@3+f@g@h@i@i@                                                          ",
"                                                                          j@k@l@m@n@o@p@B+q@r@s@3+t@u@v@w@x@                                                          ",
"                                                                        y@z@A@B@C@D@E@F@G@>@H@I@3+t@J@K@L@M@                                                          ",
"                                                                      N@O@P@Q@R@S@T@U@V@W@X@3+3+3+Y@Z@`@ #                                                            ",
"                                                                    N@N@.#+#@###$#%#&#*#W@X@3+3+3+3+=#-#                                                              ",
"                                                                  N@N@;#>#,#'#s+)#&#!#l+G@X@3+3+3+3+3+3+                                                              ",
"                                                                N@N@.#~#{#]#^#s+r+U@l+/#}@(#3+3+3+3+3+3+                                                              ",
"                                                              N@N@N@.#  _#^#:#<#r+U@r+[#f+}#3+3+3+3+3+3+                                                              ",
"                                                            N@N@N@N@    ^#n+|#1#E@U@r+[#2#{+3+3+3+3+3+3+                                                              ",
"                                                          N@N@N@N@      n+3#4#5#&#V@6#}@7#8#3+3+3+3+3+3+                                                              ",
"                                                        N@N@N@          n+3#4#5#9#0#a#3#7#8#3+3+3+3+3+                                                                ",
"                                                                          ^#b#c#d#e+n+  |@e#e#e#3+3+3+                                                                ",
"                                                                          f#f#g#h#i#      j#k#l#m#3+                                                                  ",
"                                                                          n#n#o#p#q#      r#r#s#t#                                                                    ",
"                                                                          u#u#v#w#          x#x#                                                                      ",
"                                                                          y#z#A#B#          x#x#x#                                                                    ",
"                                                                        C#D#A#E#          x#x#x#x#x#                                                                  ",
"                                                                        E#E#F#x#            x#x#x#x#x#                                                                ",
"                                                                                                                                                                      ",
"                                                                                                                                                                      ",
"                                                                                                                                                                      ",
"                                                                                                                                                                      ",
"                                                                                                                                                                      ",
"                                                                                                                                                                      ",
"                                                                                                                                                                      ",
"                                                                                                                                                                      "};
