/* XPM */
static char * player_frame3_xpm[] = {
"64 64 475 2",
"  	c None",
". 	c #C1CAD9",
"+ 	c #C2CAD9",
"@ 	c #B9C3D3",
"# 	c #929FB3",
"$ 	c #5E6779",
"% 	c #656F81",
"& 	c #91A0B8",
"* 	c #9BA9BF",
"= 	c #B8C2D2",
"- 	c #C8D0DE",
"; 	c #C7CFDD",
"> 	c #A3B0C4",
", 	c #A4B1C5",
"' 	c #9AA5B9",
") 	c #666F7F",
"! 	c #6E798C",
"~ 	c #8593AA",
"{ 	c #99A6BD",
"] 	c #B5BFD0",
"^ 	c #C3CBDA",
"/ 	c #90A0B9",
"( 	c #8492AA",
"_ 	c #667083",
": 	c #828FA4",
"< 	c #91A2BB",
"[ 	c #9EA6BA",
"} 	c #CDBABA",
"| 	c #D6BDB9",
"1 	c #D4BCB9",
"2 	c #D4BDBA",
"3 	c #D5BDBA",
"4 	c #909EB5",
"5 	c #909FB7",
"6 	c #95A1B7",
"7 	c #AAA0AC",
"8 	c #D5A18A",
"9 	c #E0A483",
"0 	c #E3A683",
"a 	c #E4A57C",
"b 	c #DEA17F",
"c 	c #BEC7D7",
"d 	c #9AA8BF",
"e 	c #90A1BA",
"f 	c #ADA0A9",
"g 	c #CB9E8F",
"h 	c #B9A0A2",
"i 	c #C6B6BA",
"j 	c #E0C1B2",
"k 	c #E8B995",
"l 	c #BFA6A3",
"m 	c #BCBBC6",
"n 	c #BEC7D6",
"o 	c #B1BCCE",
"p 	c #9AA7BD",
"q 	c #A99FAB",
"r 	c #CD9E8D",
"s 	c #D89873",
"t 	c #8F8893",
"u 	c #8C9BAD",
"v 	c #C9B9AF",
"w 	c #E5C09F",
"x 	c #95939B",
"y 	c #A2AFC0",
"z 	c #B6C0D1",
"A 	c #98A6BD",
"B 	c #96A1B8",
"C 	c #C39E96",
"D 	c #E29D74",
"E 	c #D79265",
"F 	c #7F5C4A",
"G 	c #544745",
"H 	c #B19176",
"I 	c #E2BA93",
"J 	c #866D5B",
"K 	c #93A2BA",
"L 	c #93A1B8",
"M 	c #A8A0AC",
"N 	c #CB9E90",
"O 	c #DF9867",
"P 	c #C78557",
"Q 	c #BE7D4F",
"R 	c #D7A276",
"S 	c #EDBE93",
"T 	c #CB9063",
"U 	c #94A3BA",
"V 	c #92A1B9",
"W 	c #8FA1BA",
"X 	c #B2A7B0",
"Y 	c #DDAC97",
"Z 	c #E6A073",
"` 	c #E2A88B",
" .	c #E2BCA9",
"..	c #E6C7B3",
"+.	c #E0B6A2",
"@.	c #C6CEDC",
"#.	c #B4BECF",
"$.	c #91A0B9",
"%.	c #A8B2C5",
"&.	c #CBC1C7",
"*.	c #DFA98F",
"=.	c #D3BAB6",
"-.	c #C7CAD5",
";.	c #C8CBD5",
">.	c #C7C9D4",
",.	c #B4BED0",
"'.	c #A2AFC4",
").	c #8F9FB8",
"!.	c #90A0B8",
"~.	c #99A8BF",
"{.	c #AFB6C6",
"].	c #CCBDC0",
"^.	c #BAB9C5",
"/.	c #A6B4C8",
"(.	c #A6B3C7",
"_.	c #A7B4C8",
":.	c #B9C3D4",
"<.	c #C5CDDB",
"[.	c #BBC4D4",
"}.	c #A3AFC4",
"|.	c #AEB7C8",
"1.	c #C0C6D2",
"2.	c #A9B1C0",
"3.	c #96A2B6",
"4.	c #99A7BD",
"5.	c #B2BDCF",
"6.	c #A4B0C5",
"7.	c #A5B1C5",
"8.	c #B2BCCE",
"9.	c #BAC3D3",
"0.	c #C8D0DD",
"a.	c #C0C9D8",
"b.	c #A2AEC3",
"c.	c #FDFBFB",
"d.	c #F6F4F5",
"e.	c #D2D1D3",
"f.	c #A9AFB8",
"g.	c #96A4BA",
"h.	c #BFC8D7",
"i.	c #C1C9D8",
"j.	c #AAB5C8",
"k.	c #9EABC1",
"l.	c #D1D6DF",
"m.	c #FFFFFF",
"n.	c #FFFEFE",
"o.	c #F1EFEF",
"p.	c #D1D0D3",
"q.	c #A5ACB7",
"r.	c #94A1B8",
"s.	c #AFBACC",
"t.	c #A9B4C8",
"u.	c #8F9EB7",
"v.	c #C8CFDD",
"w.	c #A1AEC2",
"x.	c #E5E8EC",
"y.	c #EFEDED",
"z.	c #C7C9CB",
"A.	c #A4ACBA",
"B.	c #94A2B8",
"C.	c #99A7BE",
"D.	c #9CA9BF",
"E.	c #FBFBFC",
"F.	c #FDFDFD",
"G.	c #FBFBFB",
"H.	c #EEEEEF",
"I.	c #C1C2C5",
"J.	c #A0A9B8",
"K.	c #95A4BB",
"L.	c #B7C1D1",
"M.	c #E8E8E8",
"N.	c #E9E9E9",
"O.	c #FCFCFC",
"P.	c #E7E7E7",
"Q.	c #C0C3C8",
"R.	c #9EA7B7",
"S.	c #94A2BA",
"T.	c #92A1BA",
"U.	c #93A2BB",
"V.	c #BCC5D5",
"W.	c #909FB8",
"X.	c #F0F0F0",
"Y.	c #C6C6C6",
"Z.	c #C7C7C7",
"`.	c #F1F1F1",
" +	c #D6D5D5",
".+	c #A2A7AF",
"++	c #818FA7",
"@+	c #6F7B90",
"#+	c #96A4BB",
"$+	c #8D9DB6",
"%+	c #F7F7F7",
"&+	c #CCCCCC",
"*+	c #A1A1A1",
"=+	c #A0A0A0",
"-+	c #CBCBCB",
";+	c #F3F3F3",
">+	c #D5D5D4",
",+	c #9698A0",
"'+	c #58617C",
")+	c #48506A",
"!+	c #31354C",
"~+	c #16132E",
"{+	c #F6F6F6",
"]+	c #C1C1C1",
"^+	c #959595",
"/+	c #8A8A8A",
"(+	c #A6A6A6",
"_+	c #D0D0D0",
":+	c #BABAB9",
"<+	c #82848C",
"[+	c #424A69",
"}+	c #292E4F",
"|+	c #1D1F3B",
"1+	c #1A1831",
"2+	c #B8B8B8",
"3+	c #929292",
"4+	c #888888",
"5+	c #969696",
"6+	c #A7A7A7",
"7+	c #919194",
"8+	c #696C7A",
"9+	c #424B6B",
"0+	c #2E3453",
"a+	c #20223D",
"b+	c #ECECEC",
"c+	c #BFBFBF",
"d+	c #989898",
"e+	c #979797",
"f+	c #929293",
"g+	c #6D707D",
"h+	c #4B5370",
"i+	c #3F4869",
"j+	c #1A1932",
"k+	c #E6E6E6",
"l+	c #AFAFAF",
"m+	c #8D8D8D",
"n+	c #AAAAAA",
"o+	c #AEAEAE",
"p+	c #606476",
"q+	c #3B4568",
"r+	c #363D5D",
"s+	c #2C3150",
"t+	c #21223E",
"u+	c #1A1931",
"v+	c #B1B1B1",
"w+	c #8F8F8F",
"x+	c #9E9E9E",
"y+	c #ADADAD",
"z+	c #848489",
"A+	c #5C6175",
"B+	c #394263",
"C+	c #2B3150",
"D+	c #2A2E4D",
"E+	c #21233E",
"F+	c #909090",
"G+	c #88888B",
"H+	c #606578",
"I+	c #48516F",
"J+	c #3A4263",
"K+	c #2B304F",
"L+	c #292E4D",
"M+	c #FEFEFE",
"N+	c #D7D7D6",
"O+	c #A8A8AA",
"P+	c #737680",
"Q+	c #64656C",
"R+	c #616061",
"S+	c #5C5D64",
"T+	c #464F6C",
"U+	c #3B4467",
"V+	c #333A5A",
"W+	c #2A2F4E",
"X+	c #21233F",
"Y+	c #D6D6D6",
"Z+	c #B3B4B6",
"`+	c #444C69",
" @	c #2C2F46",
".@	c #18131E",
"+@	c #222335",
"@@	c #38405D",
"#@	c #313856",
"$@	c #272B48",
"%@	c #262A47",
"&@	c #1E203A",
"*@	c #191730",
"=@	c #D4D4D4",
"-@	c #A8ADB4",
";@	c #8693A9",
">@	c #3E4558",
",@	c #0B0622",
"'@	c #080017",
")@	c #0F0B21",
"!@	c #1F2037",
"~@	c #1C1C33",
"{@	c #17152C",
"]@	c #17162C",
"^@	c #131026",
"/@	c #151228",
"(@	c #1B1932",
"_@	c #C9C3C3",
":@	c #A9A4A4",
"<@	c #8F949F",
"[@	c #8794AA",
"}@	c #3C414F",
"|@	c #000000",
"1@	c #0D0722",
"2@	c #1D1E37",
"3@	c #1A1A32",
"4@	c #141026",
"5@	c #1F1528",
"6@	c #2A1C2B",
"7@	c #2B1C2B",
"8@	c #684543",
"9@	c #523534",
"0@	c #6A6E7E",
"a@	c #8794AB",
"b@	c #535B6C",
"c@	c #3B404E",
"d@	c #373C50",
"e@	c #2A2F4D",
"f@	c #242744",
"g@	c #191832",
"h@	c #281B2C",
"i@	c #371E22",
"j@	c #5A241E",
"k@	c #45150E",
"l@	c #666979",
"m@	c #8E9CB3",
"n@	c #8491A7",
"o@	c #818EA4",
"p@	c #6A758B",
"q@	c #303653",
"r@	c #2A2F4F",
"s@	c #252845",
"t@	c #1B1A33",
"u@	c #191932",
"v@	c #291C2D",
"w@	c #3A1F22",
"x@	c #3A2021",
"y@	c #B38B6E",
"z@	c #A87858",
"A@	c #AC8172",
"B@	c #B3999A",
"C@	c #8B8696",
"D@	c #798298",
"E@	c #616C83",
"F@	c #2E3451",
"G@	c #131732",
"H@	c #583434",
"I@	c #854C36",
"J@	c #884E37",
"K@	c #F1C59A",
"L@	c #E9B083",
"M@	c #E59F6F",
"N@	c #D49269",
"O@	c #7C504A",
"P@	c #3F3752",
"Q@	c #343B59",
"R@	c #2E3352",
"S@	c #292E4C",
"T@	c #242743",
"U@	c #081532",
"V@	c #7A473C",
"W@	c #B96B48",
"X@	c #BB6D49",
"Y@	c #F7CBA0",
"Z@	c #F5C599",
"`@	c #F0B485",
" #	c #704B4B",
".#	c #2F3659",
"+#	c #3B4566",
"@#	c #2D3352",
"##	c #232643",
"$#	c #1D1E38",
"%#	c #061531",
"&#	c #7D493D",
"*#	c #BD6E4A",
"=#	c #C0704A",
"-#	c #C69D7D",
";#	c #CCA482",
">#	c #C79876",
",#	c #AE7960",
"'#	c #5C4C5E",
")#	c #384568",
"!#	c #434D6F",
"~#	c #3F496B",
"{#	c #2F3554",
"]#	c #191831",
"^#	c #101632",
"/#	c #643B38",
"(#	c #9C5B42",
"_#	c #B76A48",
":#	c #5B242B",
"<#	c #683A36",
"[#	c #6A3F3B",
"}#	c #5E3E44",
"|#	c #4B4055",
"1#	c #424969",
"2#	c #414C6E",
"3#	c #424B6D",
"4#	c #3D4667",
"5#	c #291E33",
"6#	c #3D2734",
"7#	c #571C27",
"8#	c #561A26",
"9#	c #521124",
"0#	c #411B38",
"a#	c #2B2546",
"b#	c #273253",
"c#	c #3E486A",
"d#	c #323958",
"e#	c #161832",
"f#	c #551D2A",
"g#	c #4C2337",
"h#	c #382B47",
"i#	c #2C3453",
"j#	c #363E5E",
"k#	c #404A6B",
"l#	c #3A4364",
"m#	c #252946",
"n#	c #581C26",
"o#	c #522030",
"p#	c #372C48",
"q#	c #2B2E4D",
"r#	c #343B5B",
"s#	c #404A6C",
"t#	c #424C6E",
"u#	c #414B6D",
"v#	c #394162",
"w#	c #1E1F39",
"x#	c #581B25",
"y#	c #2D2E4D",
"z#	c #292F4E",
"A#	c #353C5C",
"B#	c #3A4262",
"C#	c #303656",
"D#	c #282D4B",
"E#	c #1D1D37",
"F#	c #303858",
"G#	c #3A4465",
"H#	c #3B4465",
"I#	c #313857",
"J#	c #272B49",
"K#	c #1C1C36",
"L#	c #302F4C",
"M#	c #31304D",
"N#	c #32324F",
"O#	c #2F324F",
"P#	c #2C304F",
"Q#	c #1A1933",
"R#	c #1C1931",
"S#	c #1E1A31",
"T#	c #1D1931",
"U#	c #4F2D39",
"V#	c #4B2B38",
"W#	c #392636",
"X#	c #2F2940",
"Y#	c #2D1C2A",
"Z#	c #311D28",
"`#	c #1F1A31",
" $	c #5D2C28",
".$	c #5E2C28",
"+$	c #592A27",
"@$	c #412122",
"#$	c #391F21",
"$$	c #361E23",
"%$	c #231A2F",
"&$	c #572A27",
"*$	c #492524",
"=$	c #3A1F20",
"-$	c #552926",
";$	c #4B2524",
">$	c #3A1F21",
",$	c #3F2122",
"'$	c #3D2022",
"                                                                                                                                ",
"                                                                                                                                ",
"                                                                                                                                ",
"                                                                                                                                ",
"                                                                                                                                ",
"                                                                                                                                ",
"                                                                                                                                ",
"                                                                                                                                ",
"                                                  . + @ # $ % & * = - ;                                                         ",
"                                                  > , ' ) ! ~ { ] ^ ; ; ;                                                       ",
"                                                    / ( _ : < [ } | 1 2 3                                                       ",
"                                                        4 5 6 7 8 9 0 a b     ;                                                 ",
"                                                      c d e f g h i j k l m -                                                   ",
"                                                    n o p q r s t u v w x y                                                     ",
"                                                  - z A B C D E F G H I J                                                       ",
"                                                ; - ] K L M N O P Q R S T                                                       ",
"                                                ; - z U V W X Y Z `  ...+.                                                      ",
"                                              ; ; @.#.U V $.%.&.*.=.-.;.>.                                                      ",
"                                            ; ; ; ,.'.  ).!.~.{.].^./.(._.:.                                                    ",
"                                          ; ; <.[.}.|.  1.2.3.4.5.'.A 6.7.8.9.                                                  ",
"                                          ; 0.a.b.    c.d.e.f.g.A U 7.h.i.j.A                                                   ",
"                                        ; ; - a.k.l.m.n.n.o.p.q.r./ * s.^ t.u.                                                  ",
"                                        ; v.^ z w.x.m.m.m.m.y.z.A.B.$.C.#.}.&                                                   ",
"                                        ; @.z D.  E.m.m.m.F.G.H.I.J.V K 4.K.V                                                   ",
"                                      - ; L.7.    m.m.m.m.M.N.O.P.Q.R.S.T.U.                                                    ",
"                                      V.[.}.W.    m.m.F.X.Y.Z.`.G. +.+~ ++@+                                                    ",
"                                      D.* #+$+  m.m.m.%+&+*+=+-+;+>+,+'+)+!+~+                                                  ",
"                                      & & $.    m.m.m.{+]+^+/+(+_+:+<+[+}+|+1+                                                  ",
"                                      V V       m.m.G.M.2+3+4+5+6+7+8+9+0+a+1+                                                  ",
"                                        V       m.m.b+c+d+4+e+6+f+g+h+i+0+a+1+j+                                                ",
"                                              m.m.m.k+l+m+^+n+o+m+p+q+r+s+t+u+j+                                                ",
"                                              m.m.m.P.v+w+x+y+(+z+A+B+C+D+E+1+j+                                                ",
"                                              m.m.m.P.v+m+/+F+G+H+I+J+K+L+E+1+j+                                                ",
"                                              m.M+b+N+O+P+Q+R+S+T+U+V+K+W+X+j+j+                                                ",
"                                              m.F.Y+Z+  `+ @.@+@@@#@$@$@%@&@*@j+                                                ",
"                                                O.=@-@;@>@,@'@)@!@~@{@]@]@^@/@u+(@                                              ",
"                                                _@:@<@[@}@|@1@2@2@2@3@4@^@^@5@6@7@                                              ",
"                                                8@9@0@a@b@c@d@e@L+L+f@j+1+g@h@i@i@                                              ",
"                                                j@k@l@m@n@o@p@q@W+r@s@t@j+u@v@w@x@                                              ",
"                                                y@z@A@B@C@D@E@F@L+r@s@t@j+G@H@I@J@                                              ",
"                                                K@L@M@N@O@P@Q@R@K+S@T@t@j+U@V@W@X@                                              ",
"                                                Y@Z@`@E  #.#+#J+@###$#j+j+%#&#*#=#                                              ",
"                                                -#;#>#,#'#)#!#~#{#a+]#j+j+^#/#(#_#                                              ",
"                                              :#<#[#}#|#1#2#3#4#0+a+1+j+j+u@5#6#                                                ",
"                                            7#8#9#0#a#b#c#!#4#d#K+E+1+j+j+j+e#U@                                                ",
"                                          7#7#f#g#h#i#j#k#!#l#W+m#&@j+j+j+j+j+j+                                                ",
"                                        7#7#n#o#p#q#r#s#t#u#v#S@w#j+j+j+j+j+j+j+                                                ",
"                                      7#7#7#x#  y#z#A#t#t#B#C#D#E#1+j+j+j+j+j+j+                                                ",
"                                    7#7#7#7#    z#z#F#G#H#I#W+J#K#u@u@u@j+j+j+j+                                                ",
"                                  7#7#7#7#        L#M#N#O#P#r@  Q#R#S#T#(@j+j+                                                  ",
"                                7#7#7#            U#U#V#W#X#      Y#Z#Y#`#u@                                                    ",
"                                7#7#               $.$+$@$        #$#$$$%$                                                      ",
"                                                   $ $&$@$        #$#$#$                                                        ",
"                                                .$.$&$*$          #$#$#$=$                                                      ",
"                                                -$-$;$>$          #$#$#$#$#$                                                    ",
"                                                ,$,$'$#$          #$#$#$#$#$#$                                                  ",
"                                                                                                                                ",
"                                                                                                                                ",
"                                                                                                                                ",
"                                                                                                                                ",
"                                                                                                                                ",
"                                                                                                                                ",
"                                                                                                                                ",
"                                                                                                                                "};
