/* XPM */
static char *_0f91e73a75e4c7fa85cf817ce922aa9L2gq2C0lUn5TG0Q0[] = {
/* columns rows colors chars-per-pixel */
"64 64 5 1 ",
"  c None",
". c #00167D",
"X c #45BAC7",
"o c #65EFFF",
"O c white",
/* pixels */
"  ............................................................  ",
" .OOOOOOOOOOOOOOOOOOOOOOOOOOOOOOOOOOOOOOOOOOOOOOOOOOOOOOOOOOOO. ",
".OoooooooooooooooOOOOOoooooooooooOOOOOOOOoooooOOOOOooooooooooOO.",
".OooooooooooooooOOOOOOooooooooooOOOOOOOOoooooOOOOOooooooooooOOO.",
".OoooooooooooooOOOOOOOoooooooooOOOOOOOOoooooOOOOOooooooooooOOOO.",
".OooooooooooooOOOOOOOoooooooooOOOOOOOOoooooOOOOOooooooooooOOOoO.",
".OoooooooooooOOOOOOOoooooooooOOOOOOOOoooooOOOOOooooooooooOOOooO.",
".OooooooooooOOOOOOOoooooooooOOOOOOOOoooooOOOOOooooooooooOOOoooO.",
".OoooooooooOOOOOOOoooooooooOOOOOOOOoooooOOOOOooooooooooOOOooooO.",
".OooooooooOOOOOOOoooooooooOOOOOOOOoooooOOOOOooooooooooOOOoooooO.",
".OoooooooOOOOOOOoooooooooOOOOOOOOoooooOOOOOooooooooooOOOooooooO.",
".OooooooOOOOOOOoooooooooOOOOOOOOoooooOOOOOooooooooooOOOooooooXO.",
".OoooooOOOOOOOoooooooooOOOOOOOOoooooOOOOOooooooooooOOOooooooXOO.",
".OXXXXOOOOOOOXXXXXXXXXOOOOOOOOXXXXXOOOOOXXXXXXXXXXOOOXXXXXXXOOO.",
".OXXXOOOOOOOXXXXXXXXXOOOOOOOOXXXXXOOOOOXXXXXXXXXXOOOXXXXXXXOOOO.",
".OXXOOOOOOOXXXXXXXXXOOOOOOOOXXXXXOOOOOXXXXXXXXXXOOOXXXXXXXOOOoO.",
".OoOOOOOOOoooooooooOOOOOOOOoooooOOOOOooooooooooOOOoooooooOOOooO.",
".OOOOOOOOoooooooooOOOOOOOOoooooOOOOOooooooooooOOOoooooooOOOoooO.",
".OOOOOOOoooooooooOOOOOOOOoooooOOOOOooooooooooOOOoooooooOOOooooO.",
".OOOOOOoooooooooOOOOOOOOoooooOOOOOooooooooooOOOoooooooOOOoooooO.",
".OOOOOoooooooooOOOOOOOOoooooOOOOOooooooooooOOOoooooooOOOoooooOO.",
".OOOOoooooooooOOOOOOOOoooooOOOOOooooooooooOOOoooooooOOOoooooOOO.",
".OoooooooooooOOOOOOOOoooooOOOOOooooooooooOOOoooooooOOOoooooOOOO.",
".OooooooooooOOOOOOOOoooooOOOOOooooooooooOOOoooooooOOOoooooOOOOO.",
".OoooooooooOOOOOOOOoooooOOOOOooooooooooOOOoooooooOOOoooooOOOOoO.",
".OooooooooOOOOOOOOoooooOOOOOooooooooooOOOoooooooOOOoooooOOOOooO.",
".OoooooooOOOOOOOOoooooOOOOOooooooooooOOOoooooooOOOoooooOOOOoooO.",
".OooooooOOOOOOOOoooooOOOOOooooooooooOOOoooooooOOOoooooOOOOooooO.",
".OoooooOOOOOOOOoooooOOOOOooooooooooOOOoooooooOOOoooooOOOOoooooO.",
".OooooOOOOOOOOoooooOOOOOooooooooooOOOoooooooOOOoooooOOOOooooooO.",
".OoooOOOOOOOOoooooOOOOOooooooooooOOOoooooooOOOoooooOOOOoooooooO.",
".OooOOOOOOOOoooooOOOOOooooooooooOOOoooooooOOOoooooOOOOooooooooO.",
".OoOOOOOOOOoooooOOOOOooooooooooOOOoooooooOOOoooooOOOOoooooooooO.",
".OOOOOOOOOoooooOOOOOooooooooooOOOoooooooOOOoooooOOOOooooooooooO.",
".OOOOOOOOoooooOOOOOooooooooooOOOoooooooOOOoooooOOOOoooooooooooO.",
".OOOOOOOoooooOOOOOooooooooooOOOoooooooOOOoooooOOOOooooooooooooO.",
".OOOOOOoooooOOOOOooooooooooOOOoooooooOOOoooooOOOOooooooooooooOO.",
".XOOOOOOOOOOOOOOOOOOOOOOOOOOOOOOOOOOOOOOOOOOOOOOOOOOOOOOOOOOOOX.",
".XXOOOOOOOOOOOOOOOOOOOOOOOOOOOOOOOOOOOOOOOOOOOOOOOOOOOOOOOOOOXX.",
".XXXXXXXXXXXXXXXXXXXXXXXXXXXXXXXXXXXXXXXXXXXXXXXXXXXXXXXXXXXXXX.",
".XXXXXXXXXXXXXXXXXXXXXXXXXXXXXXXXXXXXXXXXXXXXXXXXXXXXXXXXXXXXXX.",
".XXooooooooXXooooooooooooooooooooooXXXXooooXXXXXXXooooXXXXoooXX.",
".XXoooooooXXoooooooooooooooooooooooXXXoooooXXXXXXooooXXXXXoooXX.",
".XXooooooXXoooooooooooooooooooooooXXXXooooXXXXXoooooXXXXXooooXX.",
".XXoooooXXooooooooooooooooooooooooXXXooooXXXXXXoooooXXXXoooooXX.",
".XXooooXXooooooooooooooooooooooooXXXooooXXXXXXoooooXXXXXoooooXX.",
".XXoooXXooooooooooooooooooooooooXXXXooooXXXXXoooooXXXXXooooooXX.",
".XXooXXoooooooooooooooooooooooooXXXooooXXXXXoooooXXXXXoooooooXX.",
".XXooXXoooooooooooooooooooooooooXXXooooXXXXXoooooXXXXXoooooooXX.",
".XXoXXoooooooooooooooooooooooooXXXooooXXXXXXoooXXXXXXooooooooXX.",
".XXXXoooooooooooooooooooooooooXXXXooooXXXXXooooXXXXXoooooooooXX.",
".XXXooooooooooooooooooooooooooXXXooooXXXXXooooXXXXXXooooooooXXX.",
".XXooooooooooooooooooooooooooXXXooooXXXXXooooXXXXXXooooooooXXXX.",
".XXooooooooooooooooooooooooooXXXooooXXXXXoooXXXXXXooooooooXXXXX.",
".XXoooooooooooooooooooooooooXXXooooXXXXXooooXXXXXoooooooooXXXXX.",
".XXooooooooooooooooooooooooXXXXoooXXXXXooooXXXXXXooooooooXXXXXX.",
".XXooooooooooooooooooooooooXXXoooXXXXXooooXXXXXooooooooooXXXoXX.",
".XXoooooooooooooooooooooooXXXooooXXXXXoooXXXXXooooooooooXXXooXX.",
".XXooooooooooooooooooooooXXXXoooXXXXXoooXXXXXooooooooooXXXXooXX.",
".XXooooooooooooooooooooooXXXoooXXXXXooooXXXXooooooooooXXXXoooXX.",
".XXoooooooooooooooooooooXXXooooXXXXooooXXXXXooooooooooXXXooooXX.",
".XXXXXXXXXXXXXXXXXXXXXXXXXXXXXXXXXXXXXXXXXXXXXXXXXXXXXXXXXXXXXX.",
" .XXXXXXXXXXXXXXXXXXXXXXXXXXXXXXXXXXXXXXXXXXXXXXXXXXXXXXXXXXXX. ",
"  ............................................................  "
};
